<?xml version="1.0" encoding="iso-8859-1"?>
<!-- Generator: Adobe Illustrator 19.0.0, SVG Export Plug-In . SVG Version: 6.00 Build 0)  -->
<svg xmlns="http://www.w3.org/2000/svg" xmlns:xlink="http://www.w3.org/1999/xlink" version="1.1" id="Capa_1" x="0px" y="0px" viewBox="0 0 512 512" style="enable-background:new 0 0 512 512;" xml:space="preserve" width="512px" height="512px">
<g>
	<g>
		<path d="M504.485,0H7.515C3.364,0,0,3.365,0,7.515v144.282c0,4.15,3.364,7.515,7.515,7.515h285.224    c4.151,0,7.515-3.365,7.515-7.515c0-4.15-3.364-7.515-7.515-7.515H15.029V15.029h481.941v129.252h-168.83    c-4.151,0-7.515,3.365-7.515,7.515c0,4.15,3.364,7.515,7.515,7.515h176.344c4.151,0,7.515-3.365,7.515-7.515V7.515    C512,3.365,508.636,0,504.485,0z" fill="#FFFFFF"/>
	</g>
</g>
<g>
	<g>
		<path d="M47.593,32.063c-4.151,0-7.515,3.365-7.515,7.515v80.157c0,4.15,3.364,7.515,7.515,7.515s7.515-3.365,7.515-7.515V39.577    C55.108,35.427,51.744,32.063,47.593,32.063z" fill="#FFFFFF"/>
	</g>
</g>
<g>
	<g>
		<path d="M95.687,32.063c-4.151,0-7.515,3.365-7.515,7.515v80.157c0,4.15,3.364,7.515,7.515,7.515s7.515-3.365,7.515-7.515V39.577    C103.202,35.427,99.838,32.063,95.687,32.063z" fill="#FFFFFF"/>
	</g>
</g>
<g>
	<g>
		<path d="M143.781,32.063c-4.151,0-7.515,3.365-7.515,7.515v80.157c0,4.15,3.364,7.515,7.515,7.515s7.515-3.365,7.515-7.515V39.577    C151.295,35.427,147.932,32.063,143.781,32.063z" fill="#FFFFFF"/>
	</g>
</g>
<g>
	<g>
		<path d="M191.875,32.063c-4.151,0-7.515,3.365-7.515,7.515v80.157c0,4.15,3.364,7.515,7.515,7.515s7.515-3.365,7.515-7.515V39.577    C199.389,35.427,196.026,32.063,191.875,32.063z" fill="#FFFFFF"/>
	</g>
</g>
<g>
	<g>
		<path d="M239.969,32.063c-4.151,0-7.515,3.365-7.515,7.515v80.157c0,4.15,3.364,7.515,7.515,7.515s7.515-3.365,7.515-7.515V39.577    C247.483,35.427,244.12,32.063,239.969,32.063z" fill="#FFFFFF"/>
	</g>
</g>
<g>
	<g>
		<path d="M304.094,48.094c-17.403,0-31.562,14.159-31.562,31.562s14.159,31.562,31.562,31.562s31.562-14.159,31.562-31.562    S321.497,48.094,304.094,48.094z M304.094,96.188c-9.116,0-16.532-7.417-16.532-16.532s7.417-16.532,16.532-16.532    s16.532,7.417,16.532,16.532S313.21,96.188,304.094,96.188z" fill="#FFFFFF"/>
	</g>
</g>
<g>
	<g>
		<path d="M448.376,48.094c-17.403,0-31.562,14.159-31.562,31.562s14.159,31.562,31.562,31.562s31.562-14.159,31.562-31.562    S465.779,48.094,448.376,48.094z M448.376,96.188c-9.116,0-16.532-7.417-16.532-16.532s7.417-16.532,16.532-16.532    s16.532,7.417,16.532,16.532S457.492,96.188,448.376,96.188z" fill="#FFFFFF"/>
	</g>
</g>
<g>
	<g>
		<path d="M376.235,48.094c-17.403,0-31.562,14.159-31.562,31.562s14.159,31.562,31.562,31.562    c17.403,0,31.562-14.159,31.562-31.562S393.638,48.094,376.235,48.094z M376.235,96.188c-9.116,0-16.532-7.417-16.532-16.532    s7.417-16.532,16.532-16.532c9.116,0,16.532,7.417,16.532,16.532S385.351,96.188,376.235,96.188z" fill="#FFFFFF"/>
	</g>
</g>
<g>
	<g>
		<path d="M504.485,352.689H7.515c-4.151,0-7.515,3.365-7.515,7.515v144.282C0,508.635,3.364,512,7.515,512h496.971    c4.151,0,7.515-3.365,7.515-7.515V360.203C512,356.053,508.636,352.689,504.485,352.689z M496.971,496.971H15.029V367.718h481.941    V496.971z" fill="#FFFFFF"/>
	</g>
</g>
<g>
	<g>
		<path d="M47.593,384.751c-4.151,0-7.515,3.365-7.515,7.515v80.157c0,4.15,3.364,7.515,7.515,7.515s7.515-3.365,7.515-7.515    v-80.157C55.108,388.116,51.744,384.751,47.593,384.751z" fill="#FFFFFF"/>
	</g>
</g>
<g>
	<g>
		<path d="M95.687,384.751c-4.151,0-7.515,3.365-7.515,7.515v80.157c0,4.15,3.364,7.515,7.515,7.515s7.515-3.365,7.515-7.515    v-80.157C103.202,388.116,99.838,384.751,95.687,384.751z" fill="#FFFFFF"/>
	</g>
</g>
<g>
	<g>
		<path d="M143.781,384.751c-4.151,0-7.515,3.365-7.515,7.515v80.157c0,4.15,3.364,7.515,7.515,7.515s7.515-3.365,7.515-7.515    v-80.157C151.295,388.116,147.932,384.751,143.781,384.751z" fill="#FFFFFF"/>
	</g>
</g>
<g>
	<g>
		<path d="M191.875,384.751c-4.151,0-7.515,3.365-7.515,7.515v80.157c0,4.15,3.364,7.515,7.515,7.515s7.515-3.365,7.515-7.515    v-80.157C199.389,388.116,196.026,384.751,191.875,384.751z" fill="#FFFFFF"/>
	</g>
</g>
<g>
	<g>
		<path d="M239.969,384.751c-4.151,0-7.515,3.365-7.515,7.515v80.157c0,4.15,3.364,7.515,7.515,7.515s7.515-3.365,7.515-7.515    v-80.157C247.483,388.116,244.12,384.751,239.969,384.751z" fill="#FFFFFF"/>
	</g>
</g>
<g>
	<g>
		<path d="M304.094,400.783c-17.403,0-31.562,14.159-31.562,31.562s14.159,31.562,31.562,31.562s31.562-14.159,31.562-31.562    S321.497,400.783,304.094,400.783z M304.094,448.877c-9.116,0-16.532-7.417-16.532-16.532s7.417-16.532,16.532-16.532    s16.532,7.417,16.532,16.532S313.21,448.877,304.094,448.877z" fill="#FFFFFF"/>
	</g>
</g>
<g>
	<g>
		<path d="M448.376,400.783c-17.403,0-31.562,14.159-31.562,31.562s14.159,31.562,31.562,31.562s31.562-14.159,31.562-31.562    S465.779,400.783,448.376,400.783z M448.376,448.877c-9.116,0-16.532-7.417-16.532-16.532s7.417-16.532,16.532-16.532    s16.532,7.417,16.532,16.532S457.492,448.877,448.376,448.877z" fill="#FFFFFF"/>
	</g>
</g>
<g>
	<g>
		<path d="M376.235,400.783c-17.403,0-31.562,14.159-31.562,31.562s14.159,31.562,31.562,31.562    c17.403,0,31.562-14.159,31.562-31.562S393.638,400.783,376.235,400.783z M376.235,448.877c-9.116,0-16.532-7.417-16.532-16.532    s7.417-16.532,16.532-16.532c9.116,0,16.532,7.417,16.532,16.532S385.351,448.877,376.235,448.877z" fill="#FFFFFF"/>
	</g>
</g>
<g>
	<g>
		<path d="M215.922,280.548h-24.548V175.843c0-4.15-3.364-7.515-7.515-7.515h-48.094c-4.151,0-7.515,3.365-7.515,7.515v104.704    h-24.548c-6.815,0-10.078,8.774-4.891,13.22l56.11,48.094c2.78,2.383,7.001,2.383,9.781,0l56.11-48.094    C225.999,289.321,222.737,280.548,215.922,280.548z M159.812,326.259l-35.796-30.682h11.749c4.151,0,7.515-3.365,7.515-7.515    V183.358h33.065v104.705c0,4.15,3.364,7.515,7.515,7.515h11.749L159.812,326.259z" fill="#FFFFFF"/>
	</g>
</g>
<g>
	<g>
		<path d="M413.188,218.232l-56.11-48.094c-2.815-2.412-6.967-2.412-9.781,0l-56.11,48.094c-5.187,4.446-1.925,13.22,4.891,13.22    h24.548v104.705c0,4.15,3.364,7.515,7.515,7.515h48.094c4.151,0,7.515-3.365,7.515-7.515V231.452h24.548    C415.113,231.452,418.375,222.678,413.188,218.232z M376.235,216.423c-4.151,0-7.515,3.365-7.515,7.515v104.704h-33.065V223.937    c0-4.15-3.364-7.515-7.515-7.515h-11.749l35.796-30.682l35.796,30.682H376.235z" fill="#FFFFFF"/>
	</g>
</g>
<g>
</g>
<g>
</g>
<g>
</g>
<g>
</g>
<g>
</g>
<g>
</g>
<g>
</g>
<g>
</g>
<g>
</g>
<g>
</g>
<g>
</g>
<g>
</g>
<g>
</g>
<g>
</g>
<g>
</g>
</svg>
