<?xml version="1.0" encoding="iso-8859-1"?>
<!-- Generator: Adobe Illustrator 19.0.0, SVG Export Plug-In . SVG Version: 6.00 Build 0)  -->
<svg xmlns="http://www.w3.org/2000/svg" xmlns:xlink="http://www.w3.org/1999/xlink" version="1.1" id="Capa_1" x="0px" y="0px" viewBox="0 0 480.002 480.002" style="enable-background:new 0 0 480.002 480.002;" xml:space="preserve" width="512px" height="512px">
<g>
	<g>
		<path d="M472.001,112.002h-128V67.314l26.344,26.344l11.312-11.312l-40-40c-3.128-3.128-8.184-3.128-11.312,0l-40,40    l11.312,11.312l26.344-26.344v44.688h-80V27.314l26.344,26.344l11.312-11.312l-40-40c-3.128-3.128-8.184-3.128-11.312,0l-40,40    l11.312,11.312l26.344-26.344v84.688h-80V67.314l26.344,26.344l11.312-11.312l-40-40c-3.128-3.128-8.184-3.128-11.312,0l-40,40    l11.312,11.312l26.344-26.344v44.688h-128c-4.416,0-8,3.576-8,8v216c0,4.424,3.584,8,8,8h32v128c0,4.424,3.584,8,8,8h128    c3.16,0,6.024-1.856,7.312-4.752l32-72c0.456-1.024,0.688-2.128,0.688-3.248v-56h48v56c0,1.12,0.232,2.224,0.688,3.248l32,72    c1.288,2.896,4.152,4.752,7.312,4.752h128c4.416,0,8-3.576,8-8v-128h32c4.416,0,8-3.576,8-8v-216    C480.001,115.578,476.417,112.002,472.001,112.002z M200.001,398.306l-29.2,65.696h-114.8v-200c0-4.416,3.592-8,8-8s8,3.584,8,8    v64h16v-64v-32c0-4.416,3.592-8,8-8s8,3.584,8,8v96h16v-96v-32c0-4.416,3.592-8,8-8c4.408,0,8,3.584,8,8v32v96h16v-96    c0-4.416,3.592-8,8-8s8,3.584,8,8v112v24h16v-24c0-10.432,6.688-19.328,16-22.632V398.306z M424.001,464.002h-114.8l-29.2-65.696    V321.37c9.312,3.304,16,12.2,16,22.632v24h16v-24v-112c0-4.416,3.592-8,8-8c4.408,0,8,3.584,8,8v96h16v-96v-32    c0-4.416,3.592-8,8-8c4.408,0,8,3.584,8,8v32v96h16v-96c0-4.416,3.592-8,8-8c4.408,0,8,3.584,8,8v32v64h16v-64    c0-4.416,3.592-8,8-8c4.408,0,8,3.584,8,8V464.002z M464.001,328.002h-24v-64c0-13.232-10.768-24-24-24    c-2.816,0-5.488,0.576-8,1.472v-9.472c0-13.232-10.768-24-24-24c-2.816,0-5.488,0.576-8,1.472v-9.472c0-13.232-10.768-24-24-24    s-24,10.768-24,24v9.472c-2.512-0.896-5.184-1.472-8-1.472c-13.232,0-24,10.768-24,24v80.208c-6.704-5.08-14.96-8.208-24-8.208    c-4.416,0-8,3.576-8,8v16h-48v-16c0-4.424-3.584-8-8-8c-9.04,0-17.296,3.128-24,8.208v-80.208c0-13.232-10.768-24-24-24    c-2.816,0-5.488,0.576-8,1.472v-9.472c0-13.232-10.768-24-24-24s-24,10.768-24,24v9.472c-2.512-0.896-5.184-1.472-8-1.472    c-13.232,0-24,10.768-24,24v9.472c-2.512-0.896-5.184-1.472-8-1.472c-13.232,0-24,10.768-24,24v64h-24v-200h448V328.002z" fill="#FFFFFF"/>
	</g>
</g>
<g>
	<g>
		<rect x="32.001" y="144.002" width="64" height="16" fill="#FFFFFF"/>
	</g>
</g>
<g>
	<g>
		<rect x="120.001" y="144.002" width="64" height="16" fill="#FFFFFF"/>
	</g>
</g>
<g>
	<g>
		<rect x="208.001" y="144.002" width="64" height="16" fill="#FFFFFF"/>
	</g>
</g>
<g>
	<g>
		<rect x="296.001" y="144.002" width="64" height="16" fill="#FFFFFF"/>
	</g>
</g>
<g>
	<g>
		<rect x="384.001" y="144.002" width="64" height="16" fill="#FFFFFF"/>
	</g>
</g>
<g>
	<g>
		<rect x="72.001" y="176.002" width="16" height="16" fill="#FFFFFF"/>
	</g>
</g>
<g>
	<g>
		<rect x="168.001" y="176.002" width="56" height="16" fill="#FFFFFF"/>
	</g>
</g>
<g>
	<g>
		<rect x="256.001" y="176.002" width="56" height="16" fill="#FFFFFF"/>
	</g>
</g>
<g>
	<g>
		<rect x="392.001" y="176.002" width="16" height="16" fill="#FFFFFF"/>
	</g>
</g>
<g>
	<g>
		<rect x="424.001" y="176.002" width="24" height="16" fill="#FFFFFF"/>
	</g>
</g>
<g>
	<g>
		<rect x="32.001" y="176.002" width="24" height="16" fill="#FFFFFF"/>
	</g>
</g>
<g>
	<g>
		<rect x="32.001" y="208.002" width="24" height="16" fill="#FFFFFF"/>
	</g>
</g>
<g>
	<g>
		<rect x="208.001" y="208.002" width="64" height="16" fill="#FFFFFF"/>
	</g>
</g>
<g>
	<g>
		<rect x="424.001" y="208.002" width="24" height="16" fill="#FFFFFF"/>
	</g>
</g>
<g>
	<g>
		<rect x="200.001" y="240.002" width="24" height="16" fill="#FFFFFF"/>
	</g>
</g>
<g>
	<g>
		<rect x="256.001" y="240.002" width="24" height="16" fill="#FFFFFF"/>
	</g>
</g>
<g>
	<g>
		<rect x="208.001" y="272.002" width="64" height="16" fill="#FFFFFF"/>
	</g>
</g>
<g>
</g>
<g>
</g>
<g>
</g>
<g>
</g>
<g>
</g>
<g>
</g>
<g>
</g>
<g>
</g>
<g>
</g>
<g>
</g>
<g>
</g>
<g>
</g>
<g>
</g>
<g>
</g>
<g>
</g>
</svg>
