<?xml version="1.0" encoding="utf-8"?>
<!-- Generator: Adobe Illustrator 22.0.1, SVG Export Plug-In . SVG Version: 6.00 Build 0)  -->
<svg version="1.1" id="Layer_1" xmlns="http://www.w3.org/2000/svg" xmlns:xlink="http://www.w3.org/1999/xlink" x="0px" y="0px"
	 viewBox="0 0 125.4 407" style="enable-background:new 0 0 125.4 407;" xml:space="preserve">
<style type="text/css">
	.st0{fill:#F3D6C1;}
	.st1{opacity:0.4;fill:#9B816F;enable-background:new    ;}
	.st2{fill:#FF4F3F;}
	.st3{fill:#B0B0B0;}
	.st4{fill:#2139CC;}
	.st5{fill:#FFFFFF;}
	.st6{fill:#DBDDDE;}
	.st7{fill:#7592E7;}
	.st8{fill:#2A1400;}
	.st9{fill:#2156D2;}
	.st10{fill:#ECEFF0;}
	.st11{fill:#A1ACB0;}
</style>
<title>wp-expert</title>
<path class="st0" d="M72.7,84.2c-0.1,5.5-1.4,15.7,1.3,18.1l5.2,4.6c-7.1,13-14.7,15.6-31.5,0.5c3.8-0.7,4.2-6,4.3-8.3
	s0.4-14.5,0.4-14.5L72.7,84.2z"/>
<path class="st1" d="M72.7,84.2l-20.3,0.4c0,0-0.2,7.4-0.3,11.8c6.6,1.6,13.5,2.1,20.3,1.2C72,93.4,72.6,87.8,72.7,84.2z"/>
<path class="st0" d="M83.7,46.5c3.3-7.3,9.9-4.4,9.3,4.6s-6.2,16.2-11.7,4.8C83.1,48.7,83.7,46.5,83.7,46.5z"/>
<path class="st2" d="M80.8,366.5c0,5.7,0.6,11.3,1.7,16.8c9.2,3.6,31.9,6.5,42.9,1c-2.3-10.4-22-1.3-27.3-17.6
	C92.8,365.6,80.8,366.5,80.8,366.5z"/>
<path class="st2" d="M45,373.8c-1.3,8.2-2.2,14.8-2.2,14.8c-6.4,6.8-15.9,21.4-23.1,17.8c-4.6-14.1,8.1-17.6,8.8-32.1
	C31.4,374.7,45,373.8,45,373.8z"/>
<path class="st3" d="M22.9,291.1c11-2,67.7,0,78.7,2.7c2.7-13.7-11.3-72.3-14-73s-40.3,6-41.3,7"/>
<path class="st4" d="M96.2,207.8c1.8,19.2,0.9,120.9,1.8,158.9c-6.6,3.9-17.1,1.4-17.1,1.4c-1.7-25.1-6.4-123.6-9.4-134
	c-5.7-1.5-13.7,1.5-13.7,1.5c-2.6,8-10.8,128.8-12.8,138.2c-9.1,5.7-16.7,2.5-16.7,2.5c3.3-22.7,1.2-157.1,1.3-164.8
	C38.3,203.1,93.1,207.1,96.2,207.8z"/>
<path class="st5" d="M45.5,103.6c-2.5,1.5-5.2,2.8-7.9,3.8l-3.2,104.6c0,0,42.3,3,58.7-1.8c8.3-2.4-6.5-99-6.8-99.8
	s-6.9-6.1-6.9-6.1s-13.7,7.1-17.7,7.5S45.5,103.6,45.5,103.6z"/>
<path class="st6" d="M81.8,105.9c-2.6,25.2,7.3,152.3,10.3,203c16,1.5,27-3.5,28.5-5.5c2.3-18.5-14.8-85.9-14.8-106.9
	s-3.2-72.8-3.7-77.6S81.8,105.9,81.8,105.9z"/>
<path class="st7" d="M60.9,122.9c-1,8.5-6.1,73-5.6,74.5s9.3,11.5,9.5,10.8s7.5-9,7.5-10.8s-7.8-74.5-7.8-74.5L60.9,122.9z"/>
<path class="st7" d="M55.4,117.9c1.5,2,3.6,7.1,4.8,7.6s4.1,0.5,4.8,0s4.5-6.6,4.5-6.6l-7-6.5C62.4,112.4,56.2,117.1,55.4,117.9z"/>
<path class="st5" d="M51.9,99.5c-2,1.2-7.7,4-7.7,4.7s6.2,17.3,9.7,20c2.9-3.3,5.5-6.9,7.9-10.6l9.2,8.6c8.6-8,9.4-16.8,9.3-17.3
	s-6.3-4.2-7.5-5.5c-3.7,6.3-11,12.3-11,12.3S52.8,103,51.9,99.5z"/>
<path class="st8" d="M86.8,20.6c2.4,6.9,3.8,13.2,3,17.7s-1,14.4-1.4,15.2s-2.3,1-2.3,1s1.4-24.3-1.4-34.5"/>
<path class="st0" d="M84.5,18.9c4.4,12.3,0.8,27.4,3,62.2c0.3,5.6-26.7,16.9-48.1,3.1c-2-2.8-7.5-57-3.1-63.5S71.3,3.8,84.5,18.9z"
	/>
<path class="st0" d="M34.5,47.4c-3.3-7.3-9.9-4.4-9.3,4.6s9.3,17.9,11.8,8C35.9,55.9,35.1,51.7,34.5,47.4z"/>
<path class="st8" d="M33.5,18.8c0.8-0.2,1.5-0.9,1.5-1.8C35.5,8.1,53.1,0.1,66,0.4C74.9,0.7,79,0,81.3,0c2.6,0,2.3,0.5,3,0.6
	c7.8,1,15.7,17,3,22.8c-0.7,0.3-1.6,0.2-2.2-0.4c-5.7-4.9-20-9.7-27.8-6c-7.4,3.6-16.1,3.3-19.6,6.1c-0.6,0.5-0.9,1.3-0.7,2.1
	c4.5,17.1-0.1,18.7,0.7,21.6s1.6,9.8,1.2,10.6c-0.1,0.2-0.3,0.3-0.5,0.4c-1.1,0.3-2.2-0.3-2.5-1.3c0-0.1,0-0.2-0.1-0.2
	c-0.4-2.5-1.4-7-2.6-9C31.5,44.5,20.9,21.7,33.5,18.8z"/>
<path class="st8" d="M41.7,41.7c-2.2-7.3,7.4-16.7,12.1-9.4c1.7,4,2,5.7,0.3,5.3S48.5,36.4,41.7,41.7z"/>
<path class="st8" d="M84.4,40.6c1.8-7.4-8.2-16.3-12.5-8.8c-1.5,4.1-1.7,5.8-0.1,5.3S77.4,35.7,84.4,40.6z"/>
<ellipse class="st9" cx="51.6" cy="49.7" rx="2.9" ry="4.6"/>
<ellipse class="st9" cx="75.2" cy="49.8" rx="2.9" ry="4.5"/>
<path d="M62.8,66c-0.2-0.1,0.6-1.2,1.8-3c0.7-1,1.2-2.1,1.7-3.2c0.1-0.3,0.1-0.5,0.1-0.8c0-0.2,0-0.2-0.2-0.3
	c-0.7-0.1-1.4-0.1-2,0.2l-0.6,0.2C63.3,59,63,59.1,62.7,59c-0.2-0.2-0.5-0.3-0.5-0.7c0-0.3-0.1-0.6,0-0.9c0-0.4,0-0.8,0-1.1
	c0-0.7,0.1-1.4,0.2-2.1c0.1-1.3,0.3-2.5,0.4-3.5c0.3-2,0.6-3.2,0.8-3.1s0.2,1.2,0.1,3.2l-0.1,3.5l-0.1,2v1.1c0,0.3,0,0.2,0,0.2l0,0
	l0.4-0.1c0.4-0.1,0.9-0.2,1.3-0.2c0.5-0.1,1,0,1.5,0.2c0.3,0.1,0.6,0.3,0.7,0.6c0.2,0.3,0.3,0.5,0.3,0.8c0,0.5-0.1,0.9-0.3,1.3
	c-0.5,1.2-1.2,2.4-2.1,3.4C63.9,65.2,62.9,66.1,62.8,66z"/>
<path class="st5" d="M50.6,69.9c5.6,1.5,13,4.6,24.7,0C69.1,86,60.3,87.4,50.6,69.9z"/>
<path class="st10" d="M81.2,104.6c-0.5,8.5,1.5,91.7,4.8,111.9c2.3-28,4-67.7,5.8-76.2c-1.5-2.1-3.2-4.1-5-6l4.3-1.2
	c1-5,1.2-22.7,1-23.3S81.2,104.6,81.2,104.6z"/>
<path class="st6" d="M42.6,105.1c2.3,26.1-4.3,151.3-7.3,202c-16,1.5-30-2.5-31.5-4.5c-2.3-18.5,19.8-86.8,19.8-107.8
	s-1.8-71.9-1.3-76.7S42.6,105.1,42.6,105.1z"/>
<path class="st10" d="M43.2,103.9c0.5,8.5,0.1,92.3-3.2,112.5c-2.3-28-5.6-68.3-7.5-76.8c1.5-2.1,3.2-4.1,5-6l-4.3-1.2
	c-1-5-1.2-22.7-1-23.3C32.3,108.4,43.2,103.9,43.2,103.9z"/>
<path class="st6" d="M22.5,117.2c-2.8,6.2-26.4,59.1-21.9,67.8c10.2-0.3,23.7-12.8,23.7-12.8S26.8,117.5,22.5,117.2z"/>
<path class="st0" d="M74.9,161.2c5.1-2.7,13.3-4.7,18.7-5.5s11.5-1.6,12.8-0.1c2,2.3,5.4,12,0.4,15s-25.7,1.1-29.7,3.4
	C74.8,173.4,74.9,161.2,74.9,161.2z"/>
<path d="M90.2,160.4c-0.1-0.4,3.9-1.3,9-1.9c2.1-0.3,4.3-0.4,6.5-0.5c1.7,0,2.7,0.2,2.7,0.4s-1,0.3-2.6,0.5s-3.9,0.5-6.4,0.9
	C94.3,160.4,90.2,160.8,90.2,160.4z"/>
<path d="M93,162.6c0-0.4,3.6-0.7,8.2-0.7s8.2,0.5,8.1,0.9s-3.7,0.4-8.2,0.4S93,162.9,93,162.6z"/>
<path d="M94.9,166c0-0.4,3.2-0.5,7.1-0.2c1.7,0.1,3.4,0.4,5,0.8c0.5,0.1,1,0.3,1.5,0.6c0.3,0.2,0.5,0.4,0.4,0.5s-0.3,0-0.6,0
	l-1.5-0.1l-5-0.4C98.1,166.8,94.9,166.4,94.9,166z"/>
<path class="st6" d="M77.6,159.8c6.8,2,4.8,13.2,4.8,13.2c-10.2,9-65.7,26.5-80.2,19.2c-2.8-5.8-3-10.3,0.8-16.3
	S40.6,165.6,77.6,159.8z"/>
<path class="st10" d="M101.7,117.4c2.8,6.2,23.8,58.8,19.3,67.5c-10.2-0.3-20.3-14.2-20.3-14.2S97.4,117.8,101.7,117.4z"/>
<path class="st11" d="M7.1,179.4c-0.2,0,0-1.1,0.9-2.6c0.5-0.9,1.1-1.7,1.9-2.4c0.9-0.9,1.9-1.6,2.9-2.3c1.9-1.2,4.1-2,6.3-2.4
	c1.7-0.3,2.8-0.1,2.8,0.1s-1,0.4-2.6,0.8c-2,0.6-4,1.5-5.8,2.6c-1,0.6-1.9,1.3-2.8,2.1c-0.7,0.6-1.3,1.3-1.9,2.1
	C7.7,178.6,7.3,179.5,7.1,179.4z"/>
<path class="st11" d="M26,128.6c0.1,0,0.6,1.4,1.1,3.8s1.3,5.6,1.8,9.4l0.1,0.7c0,0.3,0,0.5,0,0.7v1.3c0,0.9,0,1.7,0,2.5
	c0,1.6-0.1,3.1-0.2,4.3c-0.2,2.4-0.6,3.9-0.8,3.9s-0.1-1.5-0.2-3.9l-0.1-4.3l-0.1-2.5l0-1.3c0-0.2,0-0.4,0-0.6l-0.1-0.7
	C26.4,134.7,25.5,128.7,26,128.6z"/>
<path class="st0" d="M43.9,161c-4.9-3.1-12.9-5.9-18.1-7.1s-11.3-2.6-12.8-1.3c-2.3,2.1-6.5,11.5-1.8,14.9s25.5,3.4,29.2,6
	C42.9,173.1,43.9,161,43.9,161z"/>
<path d="M28.8,158.9c-0.1,0.4-4.1-0.4-9-1.4c-2.5-0.5-4.7-1-6.3-1.4s-2.6-0.6-2.6-0.8s1.1-0.3,2.7-0.1c2.2,0.2,4.3,0.6,6.4,1.1
	C25,157.2,28.9,158.5,28.8,158.9z"/>
<path d="M25.8,160.7c0,0.4-3.7,0.3-8.2-0.1s-8.1-0.8-8.1-1.1s3.7-0.6,8.2-0.2S25.9,160.4,25.8,160.7z"/>
<path d="M23.6,164c0,0.4-3.2,0.5-7.1,0.5l-5-0.1H10c-0.3,0-0.5,0-0.6-0.1s0.1-0.3,0.5-0.4c0.5-0.2,1-0.3,1.5-0.4
	c1.7-0.2,3.3-0.4,5-0.3C20.4,163.2,23.6,163.6,23.6,164z"/>
<path class="st10" d="M43.9,159.8c-6.8,2-4.8,13.2-4.8,13.2c10.2,9,65.7,26.5,80.2,19.2c3.7-5.3,3.5-10.5-0.8-16.3
	S80.9,165.6,43.9,159.8z"/>
<path class="st6" d="M114.9,178.8c-0.2,0.1-0.6-0.9-1.6-2.1c-0.6-0.7-1.2-1.4-1.9-2.1c-0.9-0.8-1.8-1.5-2.8-2.1
	c-1.8-1.1-3.7-2-5.8-2.6c-1.6-0.5-2.6-0.6-2.6-0.8s1.1-0.4,2.8-0.1c2.2,0.4,4.3,1.2,6.3,2.4c1,0.7,2,1.4,2.9,2.3
	c0.7,0.7,1.3,1.5,1.9,2.4C114.9,177.6,115,178.7,114.9,178.8z"/>
<path class="st6" d="M82.2,381.7c0.1,0.7,0.2,1.2,0.3,1.6c9.2,3.6,31.9,6.5,42.9,1c-0.1-0.5-0.3-1-0.5-1.5
	C111.7,388.5,92.2,383.4,82.2,381.7z"/>
<path class="st6" d="M42.8,388.6c0,0,0.2-1.2,0.5-3.2c-12.6,16-18.5,20.9-24.1,19c0.1,0.6,0.3,1.3,0.5,2
	C26.9,410,36.4,395.5,42.8,388.6z"/>
<path d="M33,58.7c0,0.1-0.3,0.1-0.7,0c-0.6-0.1-1.2-0.5-1.6-0.9c-0.7-0.7-1-1.8-0.8-2.8c0.1-0.6,0.5-1.2,1-1.6l0.3-0.2l0,0
	c0-0.1,0-0.2-0.1-0.3C31,51.9,30.6,51,30,50.3c-0.2-0.2-0.4-0.4-0.7-0.5c-0.1,0-0.3,0.1-0.4,0.4c-0.2,0.5-0.4,1-0.5,1.5
	c-0.1,0.4-0.2,0.6-0.3,0.6s-0.2-0.2-0.3-0.6c0-0.3-0.1-0.5,0-0.8c0-0.4,0.1-0.7,0.2-1.1c0.1-0.2,0.2-0.5,0.4-0.7
	c0.2-0.3,0.5-0.4,0.9-0.5c0.6,0,1.2,0.3,1.6,0.8c0.8,0.9,1.3,1.9,1.5,3.1c0,0.2,0.1,0.3,0.1,0.5l0.1,0.8V54h-0.1l-0.2,0.1L32,54.2
	l-0.2,0.1h-0.1l-0.1,0.1c-0.3,0.2-0.5,0.5-0.6,0.9c-0.2,0.7-0.1,1.4,0.4,1.9C32.2,58.3,33.1,58.5,33,58.7z"/>
<path d="M52.5,69c0.1,0.3-0.8,0.9-2,1.4s-2.2,0.8-2.4,0.5s0.6-1.2,1.8-1.7S52.4,68.6,52.5,69z"/>
</svg>
