<svg id="Layer_1" data-name="Layer 1" xmlns="http://www.w3.org/2000/svg" viewBox="0 0 125.37 407.01"><defs><style>.cls-1{fill:#f3d6c1;}.cls-12,.cls-2{fill:#9b816f;}.cls-2{opacity:0.4;}.cls-3{fill:#b0b0b0;}.cls-4{fill:#2e485c;}.cls-5{fill:#a8cfdc;}.cls-6{fill:#dbddde;}.cls-7{fill:#86a895;}.cls-8{fill:#759281;}.cls-9{fill:#cdedf8;}.cls-10{fill:#c59948;}.cls-11{fill:#4362a9;}.cls-13{fill:#fff;}.cls-14{fill:#eceff0;}.cls-15{fill:#a1acb0;}</style></defs><title>wp-expert</title><path class="cls-1" d="M72.65,84.2c-.14,5.53-1.38,15.68,1.34,18.08l5.21,4.59c-7.14,13-14.7,15.59-31.46.5,3.83-.71,4.2-6,4.25-8.25s.37-14.52.37-14.52Z"/><path class="cls-2" d="M72.65,84.2l-20.29.4s-.19,7.41-.3,11.77a55.63,55.63,0,0,0,20.33,1.2C72,93.45,72.56,87.83,72.65,84.2Z"/><path class="cls-1" d="M83.71,46.52C87,39.21,93.58,42.11,93,51.16S86.85,67.4,81.28,55.92C83.13,48.72,83.71,46.52,83.71,46.52Z"/><path class="cls-3" d="M80.8,366.48a87.68,87.68,0,0,0,1.69,16.83c9.21,3.62,31.92,6.47,42.88,1-2.31-10.43-22-1.26-27.35-17.63C92.79,365.63,80.8,366.48,80.8,366.48Z"/><path class="cls-3" d="M45,373.78c-1.26,8.19-2.19,14.84-2.19,14.84C36.4,395.45,26.9,410,19.74,406.45c-4.6-14.07,8.07-17.65,8.75-32.08C31.37,374.72,45,373.78,45,373.78Z"/><path class="cls-3" d="M22.9,291.12c11-2,67.67,0,78.67,2.67,2.67-13.67-11.33-72.33-14-73s-40.33,6-41.33,7"/><path class="cls-4" d="M96.23,207.78C98.07,227,97.09,328.67,98,366.63c-6.6,3.93-17.11,1.42-17.11,1.42-1.66-25.14-6.43-123.59-9.45-134-5.71-1.54-13.7,1.47-13.7,1.47-2.62,8-10.81,128.8-12.77,138.24-9.08,5.72-16.74,2.5-16.74,2.5,3.32-22.68,1.19-157.1,1.33-164.83C38.35,203.08,93.14,207.13,96.23,207.78Z"/><path class="cls-5" d="M45.51,103.62a46.75,46.75,0,0,1-7.94,3.75L34.4,211.95s42.33,3,58.67-1.83c8.26-2.44-6.5-99-6.75-99.75s-6.94-6.06-6.94-6.06-13.73,7.14-17.65,7.48S45.51,103.62,45.51,103.62Z"/><path class="cls-6" d="M81.82,105.87c-2.58,25.17,7.25,152.25,10.25,203,16,1.5,27-3.5,28.5-5.5,2.25-18.5-14.83-85.92-14.83-106.92s-3.17-72.83-3.67-77.58S81.82,105.87,81.82,105.87Z"/><path class="cls-7" d="M60.88,122.87c-1,8.5-6.06,73-5.56,74.5s9.25,11.5,9.5,10.75,7.5-9,7.5-10.75-7.75-74.5-7.75-74.5Z"/><path class="cls-8" d="M55.44,117.87c1.5,2,3.63,7.13,4.75,7.63s4.13.5,4.75,0,4.5-6.62,4.5-6.62l-7-6.5S56.19,117.12,55.44,117.87Z"/><path class="cls-9" d="M51.88,99.49c-2,1.17-7.73,4-7.73,4.71s6.17,17.33,9.67,20a98,98,0,0,0,7.92-10.58l9.17,8.58c8.58-8,9.38-16.77,9.29-17.27s-6.31-4.19-7.46-5.48c-3.67,6.25-11,12.33-11,12.33S52.8,103,51.88,99.49Z"/><path class="cls-10" d="M86.81,20.6c2.44,6.85,3.83,13.23,3,17.75s-1,14.39-1.39,15.2-2.32,1-2.32,1,1.39-24.25-1.39-34.46"/><path class="cls-1" d="M84.48,18.86c4.41,12.3.84,27.36,3,62.19.35,5.57-26.67,16.93-48.14,3.13-2-2.78-7.55-57-3.14-63.46S71.26,3.78,84.48,18.86Z"/><path class="cls-1" d="M34.47,47.41C31.22,40.1,24.61,43,25.19,52s9.28,17.87,11.83,8A114,114,0,0,1,34.47,47.41Z"/><path class="cls-10" d="M33.49,18.79A1.94,1.94,0,0,0,35,17C35.52,8.1,53.07.11,66,.44,74.91.66,79,0,81.28,0c2.64,0,2.29.48,3,.56,7.78,1,15.72,17,3,22.79A2,2,0,0,1,85.09,23c-5.74-4.86-20-9.74-27.76-6-7.43,3.56-16.11,3.34-19.62,6.07a2,2,0,0,0-.66,2.1c4.54,17.08-.12,18.7.67,21.65s1.62,9.75,1.16,10.56a.92.92,0,0,1-.51.38,2,2,0,0,1-2.55-1.58c-.44-2.47-1.39-7-2.62-9C31.52,44.52,20.88,21.72,33.49,18.79Z"/><path class="cls-10" d="M41.71,41.68C39.54,34.41,49.13,25,53.77,32.24c1.7,4,2,5.73.31,5.26S48.51,36.42,41.71,41.68Z"/><path class="cls-10" d="M84.43,40.62c1.81-7.37-8.22-16.33-12.51-8.84-1.51,4.1-1.73,5.82-.05,5.27S77.37,35.7,84.43,40.62Z"/><ellipse class="cls-11" cx="51.61" cy="49.65" rx="2.94" ry="4.56"/><ellipse class="cls-11" cx="75.16" cy="49.84" rx="2.94" ry="4.5"/><path class="cls-12" d="M62.79,66c-.15-.12.61-1.24,1.77-3a16.68,16.68,0,0,0,1.69-3.23,2.29,2.29,0,0,0,.14-.83c0-.23,0-.24-.23-.32a4.2,4.2,0,0,0-2,.15l-.58.15a2.08,2.08,0,0,1-.89.1c-.18-.19-.47-.31-.5-.68a6.23,6.23,0,0,1-.05-.92c0-.39,0-.76,0-1.12,0-.73.09-1.42.15-2.08.12-1.32.26-2.49.4-3.48.28-2,.58-3.15.75-3.13s.18,1.23.14,3.2l-.11,3.47-.06,2.05v1.08c0,.26,0,.17,0,.19h0l.41-.1a8.66,8.66,0,0,1,1.3-.23,3.28,3.28,0,0,1,1.47.16,1.55,1.55,0,0,1,.74.59,1.61,1.61,0,0,1,.27.85,3.35,3.35,0,0,1-.25,1.32,13.81,13.81,0,0,1-2.08,3.37C63.93,65.17,62.92,66.08,62.79,66Z"/><path class="cls-13" d="M50.6,69.92c5.57,1.51,13,4.64,24.71,0C69.05,86,60.35,87.44,50.6,69.92Z"/><path class="cls-14" d="M81.24,104.62c-.5,8.5,1.5,91.71,4.83,111.87,2.33-28,4-67.71,5.83-76.21a58.55,58.55,0,0,0-5-6l4.33-1.17c1-5,1.17-22.67,1-23.33S81.24,104.62,81.24,104.62Z"/><path class="cls-6" d="M42.57,105.12c2.25,26.08-4.25,151.25-7.25,202-16,1.5-30-2.5-31.5-4.5-2.25-18.5,19.75-86.83,19.75-107.83s-1.75-71.92-1.25-76.67S42.57,105.12,42.57,105.12Z"/><path class="cls-14" d="M43.15,103.87c.5,8.5.13,92.33-3.21,112.5-2.33-28-5.63-68.33-7.46-76.83a58.41,58.41,0,0,1,5-6l-4.33-1.17c-1-5-1.17-22.67-1-23.33S43.15,103.87,43.15,103.87Z"/><path class="cls-6" d="M22.49,117.2C19.65,123.37-3.93,176.28.57,184.95c10.17-.33,23.67-12.83,23.67-12.83S26.82,117.53,22.49,117.2Z"/><path class="cls-1" d="M74.92,161.18c5.14-2.67,13.35-4.69,18.69-5.47s11.5-1.58,12.81-.1c2,2.32,5.44,12,.41,15s-25.7,1.07-29.67,3.35C74.83,173.35,74.92,161.18,74.92,161.18Z"/><path class="cls-2" d="M97.45,155.2c1,8.5,2.06,15.52,2.26,16.92,3.12-.27,5.72-.71,7.12-1.53,5-2.93,1.64-12.65-.41-15C105.43,154.49,101.59,154.69,97.45,155.2Z"/><path class="cls-12" d="M90.18,160.43c-.06-.36,3.94-1.29,9-1.92a54,54,0,0,1,6.47-.47c1.67,0,2.72.21,2.7.39s-1,.29-2.64.54-3.87.54-6.37.85C94.31,160.44,90.24,160.79,90.18,160.43Z"/><path class="cls-12" d="M93,162.56c0-.36,3.64-.72,8.16-.7s8.18.52,8.14.91-3.65.41-8.15.41S93,162.93,93,162.56Z"/><path class="cls-12" d="M94.95,166c0-.36,3.21-.5,7.13-.16a31.81,31.81,0,0,1,5,.78,6.37,6.37,0,0,1,1.49.55c.35.19.49.43.42.47s-.25,0-.59,0l-1.48-.11-5-.39C98.08,166.82,94.93,166.37,94.95,166Z"/><path class="cls-6" d="M77.57,159.78c6.83,2,4.83,13.17,4.83,13.17-10.17,9-65.67,26.5-80.17,19.17-2.83-5.83-3-10.33.83-16.33S40.57,165.62,77.57,159.78Z"/><path class="cls-14" d="M101.74,117.45c2.83,6.17,23.83,58.83,19.33,67.5-10.17-.33-20.33-14.17-20.33-14.17S97.4,117.78,101.74,117.45Z"/><path class="cls-15" d="M7.07,179.45c-.15,0,0-1.14.87-2.65a12.36,12.36,0,0,1,1.86-2.41,17.62,17.62,0,0,1,2.91-2.31A16.76,16.76,0,0,1,19,169.69c1.71-.26,2.78-.07,2.78.09s-1,.35-2.57.82a23.7,23.7,0,0,0-5.75,2.6,23.1,23.1,0,0,0-2.77,2.08,17,17,0,0,0-1.93,2.05C7.71,178.59,7.27,179.52,7.07,179.45Z"/><path class="cls-15" d="M26,128.62c.15,0,.56,1.42,1.11,3.8s1.26,5.65,1.83,9.35l.09.71c0,.25,0,.5,0,.73l0,1.34c0,.88,0,1.73,0,2.54,0,1.62-.09,3.07-.2,4.29-.19,2.45-.58,3.94-.75,3.91s-.13-1.52-.18-3.94l-.09-4.25-.08-2.51-.05-1.32c0-.23,0-.43,0-.64l-.09-.66C26.44,134.68,25.52,128.68,26,128.62Z"/><path class="cls-1" d="M43.94,161c-4.87-3.12-12.88-5.87-18.13-7.12s-11.31-2.61-12.75-1.25c-2.25,2.13-6.5,11.5-1.75,14.88s25.5,3.38,29.25,6C42.94,173.12,43.94,161,43.94,161Z"/><path class="cls-2" d="M43.19,160.53c-.43,3.55-1.42,9.86-3.13,10.13-3.75-2.62-24.5-2.62-29.25-6a4.76,4.76,0,0,1-1.64-2.1,5.64,5.64,0,0,0,2.14,4.94c4.75,3.38,25.5,3.38,29.25,6,2.38-.37,3.38-12.5,3.38-12.5Z"/><path class="cls-12" d="M28.82,158.87c-.09.35-4.12-.36-9-1.43-2.46-.53-4.67-1-6.27-1.42s-2.58-.59-2.58-.77,1.06-.31,2.73-.15a54,54,0,0,1,6.4,1.05C25,157.23,28.91,158.52,28.82,158.87Z"/><path class="cls-12" d="M25.82,160.74c0,.36-3.69.27-8.17-.11s-8.07-.8-8.08-1.14,3.7-.58,8.19-.18S25.86,160.38,25.82,160.74Z"/><path class="cls-12" d="M23.57,164c0,.37-3.19.53-7.09.52l-5-.06-1.48,0c-.34,0-.51,0-.58-.06s.1-.28.46-.43a6.37,6.37,0,0,1,1.53-.41,31.81,31.81,0,0,1,5-.33C20.42,163.2,23.58,163.63,23.57,164Z"/><path class="cls-14" d="M43.9,159.78c-6.83,2-4.83,13.17-4.83,13.17,10.17,9,65.67,26.5,80.17,19.17,3.71-5.25,3.5-10.5-.83-16.33S80.9,165.62,43.9,159.78Z"/><path class="cls-6" d="M114.9,178.78c-.2.07-.64-.86-1.64-2.12a17,17,0,0,0-1.93-2.05,23.1,23.1,0,0,0-2.77-2.08,23.7,23.7,0,0,0-5.75-2.6c-1.56-.47-2.58-.61-2.57-.81s1.07-.35,2.78-.1a16.76,16.76,0,0,1,6.25,2.39,17.62,17.62,0,0,1,2.91,2.31,12.36,12.36,0,0,1,1.86,2.41C114.91,177.64,115,178.74,114.9,178.78Z"/><path class="cls-6" d="M82.17,381.69c.13.69.24,1.24.32,1.62,9.21,3.62,31.92,6.47,42.88,1a6.82,6.82,0,0,0-.53-1.5C111.66,388.47,92.2,383.35,82.17,381.69Z"/><path class="cls-6" d="M42.8,388.62s.17-1.21.46-3.23c-12.57,16-18.54,20.92-24.07,19,.15.65.32,1.32.55,2C26.9,410,36.4,395.45,42.8,388.62Z"/><path class="cls-12" d="M33,58.7c0,.09-.26.11-.69,0a3.3,3.3,0,0,1-1.65-.92,3,3,0,0,1-.8-2.83,2.79,2.79,0,0,1,1-1.58l.32-.22h0a2.69,2.69,0,0,0-.06-.34,5.87,5.87,0,0,0-1.1-2.51,1.25,1.25,0,0,0-.68-.49c-.11,0-.3.11-.44.37a6.56,6.56,0,0,0-.46,1.51c-.08.39-.17.62-.26.62s-.18-.22-.25-.64a3.38,3.38,0,0,1-.05-.78,3.5,3.5,0,0,1,.17-1.08,1.82,1.82,0,0,1,.37-.65,1.24,1.24,0,0,1,.86-.45,2.13,2.13,0,0,1,1.64.76,6.28,6.28,0,0,1,1.5,3.08,3.72,3.72,0,0,1,.07.47l.1.82V54l-.09,0-.18.08-.36.16-.17.08-.06,0-.12.08a1.64,1.64,0,0,0-.62.86,2.2,2.2,0,0,0,.35,1.92C32.15,58.25,33.12,58.49,33,58.7Z"/><path class="cls-12" d="M52.54,69c.11.35-.79.95-2,1.45s-2.17.78-2.37.48.6-1.16,1.85-1.69S52.43,68.64,52.54,69Z"/></svg>