<svg xmlns="http://www.w3.org/2000/svg" viewBox="0 0 512 512" width="75" height="75"><path d="M504.485 0H7.515A7.515 7.515 0 0 0 0 7.515v144.282a7.515 7.515 0 0 0 7.515 7.515h285.224a7.515 7.515 0 1 0 0-15.03H15.029V15.029H496.97v129.252H328.14a7.515 7.515 0 1 0 0 15.03h176.344a7.515 7.515 0 0 0 7.515-7.515V7.515A7.513 7.513 0 0 0 504.485 0z"/><path d="M47.593 32.063a7.515 7.515 0 0 0-7.515 7.515v80.157a7.515 7.515 0 1 0 15.03 0V39.577a7.514 7.514 0 0 0-7.515-7.514zm48.094 0a7.515 7.515 0 0 0-7.515 7.515v80.157a7.515 7.515 0 1 0 15.03 0V39.577a7.514 7.514 0 0 0-7.515-7.514zm48.094 0a7.515 7.515 0 0 0-7.515 7.515v80.157a7.515 7.515 0 1 0 15.03 0V39.577a7.515 7.515 0 0 0-7.515-7.514zm48.094 0a7.515 7.515 0 0 0-7.515 7.515v80.157a7.515 7.515 0 1 0 15.03 0V39.577a7.515 7.515 0 0 0-7.515-7.514zm48.094 0a7.515 7.515 0 0 0-7.515 7.515v80.157a7.515 7.515 0 1 0 15.03 0V39.577a7.515 7.515 0 0 0-7.515-7.514z"/><path d="M304.094 48.094c-17.403 0-31.562 14.159-31.562 31.562s14.159 31.562 31.562 31.562 31.562-14.159 31.562-31.562-14.159-31.562-31.562-31.562zm0 48.094c-9.116 0-16.532-7.417-16.532-16.532s7.417-16.532 16.532-16.532 16.532 7.417 16.532 16.532-7.416 16.532-16.532 16.532zm144.282-48.094c-17.403 0-31.562 14.159-31.562 31.562s14.159 31.562 31.562 31.562 31.562-14.159 31.562-31.562-14.159-31.562-31.562-31.562zm0 48.094c-9.116 0-16.532-7.417-16.532-16.532s7.417-16.532 16.532-16.532 16.532 7.417 16.532 16.532-7.416 16.532-16.532 16.532zm-72.141-48.094c-17.403 0-31.562 14.159-31.562 31.562s14.159 31.562 31.562 31.562 31.562-14.159 31.562-31.562-14.159-31.562-31.562-31.562zm0 48.094c-9.116 0-16.532-7.417-16.532-16.532s7.417-16.532 16.532-16.532c9.116 0 16.532 7.417 16.532 16.532s-7.416 16.532-16.532 16.532z" fill="#4abdac"/><path d="M504.485 352.689H7.515A7.515 7.515 0 0 0 0 360.204v144.282A7.515 7.515 0 0 0 7.515 512h496.971a7.515 7.515 0 0 0 7.515-7.515V360.203a7.516 7.516 0 0 0-7.516-7.514zm-7.514 144.282H15.029V367.718H496.97v129.253z"/><path d="M47.593 384.751a7.515 7.515 0 0 0-7.515 7.515v80.157a7.515 7.515 0 1 0 15.03 0v-80.157a7.515 7.515 0 0 0-7.515-7.515zm48.094 0a7.515 7.515 0 0 0-7.515 7.515v80.157a7.515 7.515 0 1 0 15.03 0v-80.157a7.515 7.515 0 0 0-7.515-7.515zm48.094 0a7.515 7.515 0 0 0-7.515 7.515v80.157a7.515 7.515 0 1 0 15.03 0v-80.157a7.516 7.516 0 0 0-7.515-7.515zm48.094 0a7.515 7.515 0 0 0-7.515 7.515v80.157a7.515 7.515 0 1 0 15.03 0v-80.157a7.516 7.516 0 0 0-7.515-7.515zm48.094 0a7.515 7.515 0 0 0-7.515 7.515v80.157a7.515 7.515 0 1 0 15.03 0v-80.157a7.516 7.516 0 0 0-7.515-7.515z" fill="#4abdac"/><path d="M304.094 400.783c-17.403 0-31.562 14.159-31.562 31.562s14.159 31.562 31.562 31.562 31.562-14.159 31.562-31.562-14.159-31.562-31.562-31.562zm0 48.094c-9.116 0-16.532-7.417-16.532-16.532s7.417-16.532 16.532-16.532 16.532 7.417 16.532 16.532-7.416 16.532-16.532 16.532zm144.282-48.094c-17.403 0-31.562 14.159-31.562 31.562s14.159 31.562 31.562 31.562 31.562-14.159 31.562-31.562-14.159-31.562-31.562-31.562zm0 48.094c-9.116 0-16.532-7.417-16.532-16.532s7.417-16.532 16.532-16.532 16.532 7.417 16.532 16.532-7.416 16.532-16.532 16.532zm-72.141-48.094c-17.403 0-31.562 14.159-31.562 31.562s14.159 31.562 31.562 31.562 31.562-14.159 31.562-31.562-14.159-31.562-31.562-31.562zm0 48.094c-9.116 0-16.532-7.417-16.532-16.532s7.417-16.532 16.532-16.532c9.116 0 16.532 7.417 16.532 16.532s-7.416 16.532-16.532 16.532z"/><path d="M215.922 280.548h-24.548V175.843a7.515 7.515 0 0 0-7.515-7.515h-48.094a7.515 7.515 0 0 0-7.515 7.515v104.704h-24.548c-6.815 0-10.078 8.774-4.891 13.22l56.11 48.094c2.78 2.383 7.001 2.383 9.781 0l56.11-48.094c5.187-4.446 1.925-13.219-4.89-13.219zm-56.11 45.711l-35.796-30.682h11.749a7.515 7.515 0 0 0 7.515-7.515V183.358h33.065v104.705a7.515 7.515 0 0 0 7.515 7.515h11.749l-35.797 30.681z" stroke="#4abdac" fill="#4abdac"/><path d="M413.188 218.232l-56.11-48.094a7.515 7.515 0 0 0-9.781 0l-56.11 48.094c-5.187 4.446-1.925 13.22 4.891 13.22h24.548v104.705a7.515 7.515 0 0 0 7.515 7.515h48.094a7.515 7.515 0 0 0 7.515-7.515V231.452h24.548c6.815 0 10.077-8.774 4.89-13.22zm-36.953-1.809a7.515 7.515 0 0 0-7.515 7.515v104.704h-33.065V223.937a7.515 7.515 0 0 0-7.515-7.515h-11.749l35.796-30.682 35.796 30.682h-11.748z"/></svg>