<?xml version="1.0" encoding="UTF-8" standalone="no"?>
<!-- Generator: Adobe Illustrator 19.0.0, SVG Export Plug-In . SVG Version: 6.00 Build 0)  -->

<svg
   xmlns:dc="http://purl.org/dc/elements/1.1/"
   xmlns:cc="http://creativecommons.org/ns#"
   xmlns:rdf="http://www.w3.org/1999/02/22-rdf-syntax-ns#"
   xmlns:svg="http://www.w3.org/2000/svg"
   xmlns="http://www.w3.org/2000/svg"
   xmlns:sodipodi="http://sodipodi.sourceforge.net/DTD/sodipodi-0.dtd"
   xmlns:inkscape="http://www.inkscape.org/namespaces/inkscape"
   version="1.1"
   id="Capa_1"
   x="0px"
   y="0px"
   viewBox="0 0 512 512"
   style="enable-background:new 0 0 512 512;"
   xml:space="preserve"
   width="75px"
   height="75px"
   sodipodi:docname="backup-plan.svg"
   inkscape:version="0.92.3 (2405546, 2018-03-11)"><metadata
   id="metadata157"><rdf:RDF><cc:Work
       rdf:about=""><dc:format>image/svg+xml</dc:format><dc:type
         rdf:resource="http://purl.org/dc/dcmitype/StillImage" /><dc:title></dc:title></cc:Work></rdf:RDF></metadata><defs
   id="defs155" /><sodipodi:namedview
   pagecolor="#ffffff"
   bordercolor="#666666"
   borderopacity="1"
   objecttolerance="10"
   gridtolerance="10"
   guidetolerance="10"
   inkscape:pageopacity="0"
   inkscape:pageshadow="2"
   inkscape:window-width="1155"
   inkscape:window-height="819"
   id="namedview153"
   showgrid="false"
   inkscape:pagecheckerboard="true"
   inkscape:zoom="0.4609375"
   inkscape:cx="274.44068"
   inkscape:cy="237.55932"
   inkscape:window-x="2511"
   inkscape:window-y="124"
   inkscape:window-maximized="0"
   inkscape:current-layer="Capa_1" />
<g
   id="g6"
   style="fill:#000000">
	<g
   id="g4"
   style="fill:#000000">
		<path
   d="M504.485,0H7.515C3.364,0,0,3.365,0,7.515v144.282c0,4.15,3.364,7.515,7.515,7.515h285.224    c4.151,0,7.515-3.365,7.515-7.515c0-4.15-3.364-7.515-7.515-7.515H15.029V15.029h481.941v129.252h-168.83    c-4.151,0-7.515,3.365-7.515,7.515c0,4.15,3.364,7.515,7.515,7.515h176.344c4.151,0,7.515-3.365,7.515-7.515V7.515    C512,3.365,508.636,0,504.485,0z"
   fill="#FFFFFF"
   id="path2"
   style="fill:#000000" />
	</g>
</g>
<g
   id="g12"
   style="fill:#000000">
	<g
   id="g10"
   style="fill:#000000">
		<path
   d="M47.593,32.063c-4.151,0-7.515,3.365-7.515,7.515v80.157c0,4.15,3.364,7.515,7.515,7.515s7.515-3.365,7.515-7.515V39.577    C55.108,35.427,51.744,32.063,47.593,32.063z"
   fill="#FFFFFF"
   id="path8"
   style="fill:#000000" />
	</g>
</g>
<g
   id="g18"
   style="fill:#000000">
	<g
   id="g16"
   style="fill:#000000">
		<path
   d="M95.687,32.063c-4.151,0-7.515,3.365-7.515,7.515v80.157c0,4.15,3.364,7.515,7.515,7.515s7.515-3.365,7.515-7.515V39.577    C103.202,35.427,99.838,32.063,95.687,32.063z"
   fill="#FFFFFF"
   id="path14"
   style="fill:#000000" />
	</g>
</g>
<g
   id="g24"
   style="fill:#000000">
	<g
   id="g22"
   style="fill:#000000">
		<path
   d="M143.781,32.063c-4.151,0-7.515,3.365-7.515,7.515v80.157c0,4.15,3.364,7.515,7.515,7.515s7.515-3.365,7.515-7.515V39.577    C151.295,35.427,147.932,32.063,143.781,32.063z"
   fill="#FFFFFF"
   id="path20"
   style="fill:#000000" />
	</g>
</g>
<g
   id="g30"
   style="fill:#000000">
	<g
   id="g28"
   style="fill:#000000">
		<path
   d="M191.875,32.063c-4.151,0-7.515,3.365-7.515,7.515v80.157c0,4.15,3.364,7.515,7.515,7.515s7.515-3.365,7.515-7.515V39.577    C199.389,35.427,196.026,32.063,191.875,32.063z"
   fill="#FFFFFF"
   id="path26"
   style="fill:#000000" />
	</g>
</g>
<g
   id="g36"
   style="fill:#000000">
	<g
   id="g34"
   style="fill:#000000">
		<path
   d="M239.969,32.063c-4.151,0-7.515,3.365-7.515,7.515v80.157c0,4.15,3.364,7.515,7.515,7.515s7.515-3.365,7.515-7.515V39.577    C247.483,35.427,244.12,32.063,239.969,32.063z"
   fill="#FFFFFF"
   id="path32"
   style="fill:#000000" />
	</g>
</g>
<g
   id="g42"
   style="fill:#4abdac;fill-opacity:1">
	<g
   id="g40"
   style="fill:#4abdac;fill-opacity:1">
		<path
   d="M304.094,48.094c-17.403,0-31.562,14.159-31.562,31.562s14.159,31.562,31.562,31.562s31.562-14.159,31.562-31.562    S321.497,48.094,304.094,48.094z M304.094,96.188c-9.116,0-16.532-7.417-16.532-16.532s7.417-16.532,16.532-16.532    s16.532,7.417,16.532,16.532S313.21,96.188,304.094,96.188z"
   fill="#FFFFFF"
   id="path38"
   style="fill:#4abdac;fill-opacity:1" />
	</g>
</g>
<g
   id="g48"
   style="fill:#4abdac;fill-opacity:1">
	<g
   id="g46"
   style="fill:#4abdac;fill-opacity:1">
		<path
   d="M448.376,48.094c-17.403,0-31.562,14.159-31.562,31.562s14.159,31.562,31.562,31.562s31.562-14.159,31.562-31.562    S465.779,48.094,448.376,48.094z M448.376,96.188c-9.116,0-16.532-7.417-16.532-16.532s7.417-16.532,16.532-16.532    s16.532,7.417,16.532,16.532S457.492,96.188,448.376,96.188z"
   fill="#FFFFFF"
   id="path44"
   style="fill:#4abdac;fill-opacity:1" />
	</g>
</g>
<g
   id="g54"
   style="fill:#4abdac;fill-opacity:1">
	<g
   id="g52"
   style="fill:#4abdac;fill-opacity:1">
		<path
   d="M376.235,48.094c-17.403,0-31.562,14.159-31.562,31.562s14.159,31.562,31.562,31.562    c17.403,0,31.562-14.159,31.562-31.562S393.638,48.094,376.235,48.094z M376.235,96.188c-9.116,0-16.532-7.417-16.532-16.532    s7.417-16.532,16.532-16.532c9.116,0,16.532,7.417,16.532,16.532S385.351,96.188,376.235,96.188z"
   fill="#FFFFFF"
   id="path50"
   style="fill:#4abdac;fill-opacity:1" />
	</g>
</g>
<g
   id="g60"
   style="fill:#000000">
	<g
   id="g58"
   style="fill:#000000">
		<path
   d="M504.485,352.689H7.515c-4.151,0-7.515,3.365-7.515,7.515v144.282C0,508.635,3.364,512,7.515,512h496.971    c4.151,0,7.515-3.365,7.515-7.515V360.203C512,356.053,508.636,352.689,504.485,352.689z M496.971,496.971H15.029V367.718h481.941    V496.971z"
   fill="#FFFFFF"
   id="path56"
   style="fill:#000000" />
	</g>
</g>
<g
   id="g66"
   style="fill:#4abdac;fill-opacity:1">
	<g
   id="g64"
   style="fill:#4abdac;fill-opacity:1">
		<path
   d="M47.593,384.751c-4.151,0-7.515,3.365-7.515,7.515v80.157c0,4.15,3.364,7.515,7.515,7.515s7.515-3.365,7.515-7.515    v-80.157C55.108,388.116,51.744,384.751,47.593,384.751z"
   fill="#FFFFFF"
   id="path62"
   style="fill:#4abdac;fill-opacity:1" />
	</g>
</g>
<g
   id="g72"
   style="fill:#4abdac;fill-opacity:1">
	<g
   id="g70"
   style="fill:#4abdac;fill-opacity:1">
		<path
   d="M95.687,384.751c-4.151,0-7.515,3.365-7.515,7.515v80.157c0,4.15,3.364,7.515,7.515,7.515s7.515-3.365,7.515-7.515    v-80.157C103.202,388.116,99.838,384.751,95.687,384.751z"
   fill="#FFFFFF"
   id="path68"
   style="fill:#4abdac;fill-opacity:1" />
	</g>
</g>
<g
   id="g78"
   style="fill:#4abdac;fill-opacity:1">
	<g
   id="g76"
   style="fill:#4abdac;fill-opacity:1">
		<path
   d="M143.781,384.751c-4.151,0-7.515,3.365-7.515,7.515v80.157c0,4.15,3.364,7.515,7.515,7.515s7.515-3.365,7.515-7.515    v-80.157C151.295,388.116,147.932,384.751,143.781,384.751z"
   fill="#FFFFFF"
   id="path74"
   style="fill:#4abdac;fill-opacity:1" />
	</g>
</g>
<g
   id="g84"
   style="fill:#4abdac;fill-opacity:1">
	<g
   id="g82"
   style="fill:#4abdac;fill-opacity:1">
		<path
   d="M191.875,384.751c-4.151,0-7.515,3.365-7.515,7.515v80.157c0,4.15,3.364,7.515,7.515,7.515s7.515-3.365,7.515-7.515    v-80.157C199.389,388.116,196.026,384.751,191.875,384.751z"
   fill="#FFFFFF"
   id="path80"
   style="fill:#4abdac;fill-opacity:1" />
	</g>
</g>
<g
   id="g90"
   style="fill:#4abdac;fill-opacity:1">
	<g
   id="g88"
   style="fill:#4abdac;fill-opacity:1">
		<path
   d="M239.969,384.751c-4.151,0-7.515,3.365-7.515,7.515v80.157c0,4.15,3.364,7.515,7.515,7.515s7.515-3.365,7.515-7.515    v-80.157C247.483,388.116,244.12,384.751,239.969,384.751z"
   fill="#FFFFFF"
   id="path86"
   style="fill:#4abdac;fill-opacity:1" />
	</g>
</g>
<g
   id="g96"
   style="fill:#000000">
	<g
   id="g94"
   style="fill:#000000">
		<path
   d="M304.094,400.783c-17.403,0-31.562,14.159-31.562,31.562s14.159,31.562,31.562,31.562s31.562-14.159,31.562-31.562    S321.497,400.783,304.094,400.783z M304.094,448.877c-9.116,0-16.532-7.417-16.532-16.532s7.417-16.532,16.532-16.532    s16.532,7.417,16.532,16.532S313.21,448.877,304.094,448.877z"
   fill="#FFFFFF"
   id="path92"
   style="fill:#000000" />
	</g>
</g>
<g
   id="g102"
   style="fill:#000000">
	<g
   id="g100"
   style="fill:#000000">
		<path
   d="M448.376,400.783c-17.403,0-31.562,14.159-31.562,31.562s14.159,31.562,31.562,31.562s31.562-14.159,31.562-31.562    S465.779,400.783,448.376,400.783z M448.376,448.877c-9.116,0-16.532-7.417-16.532-16.532s7.417-16.532,16.532-16.532    s16.532,7.417,16.532,16.532S457.492,448.877,448.376,448.877z"
   fill="#FFFFFF"
   id="path98"
   style="fill:#000000" />
	</g>
</g>
<g
   id="g108">
	<g
   id="g106">
		<path
   d="M376.235,400.783c-17.403,0-31.562,14.159-31.562,31.562s14.159,31.562,31.562,31.562    c17.403,0,31.562-14.159,31.562-31.562S393.638,400.783,376.235,400.783z M376.235,448.877c-9.116,0-16.532-7.417-16.532-16.532    s7.417-16.532,16.532-16.532c9.116,0,16.532,7.417,16.532,16.532S385.351,448.877,376.235,448.877z"
   fill="#FFFFFF"
   id="path104"
   style="fill:#000000" />
	</g>
</g>
<g
   id="g114"
   style="stroke:#4abdac;stroke-opacity:1;fill:#4abdac;fill-opacity:1">
	<g
   id="g112"
   style="stroke:#4abdac;stroke-opacity:1;fill:#4abdac;fill-opacity:1">
		<path
   d="M215.922,280.548h-24.548V175.843c0-4.15-3.364-7.515-7.515-7.515h-48.094c-4.151,0-7.515,3.365-7.515,7.515v104.704    h-24.548c-6.815,0-10.078,8.774-4.891,13.22l56.11,48.094c2.78,2.383,7.001,2.383,9.781,0l56.11-48.094    C225.999,289.321,222.737,280.548,215.922,280.548z M159.812,326.259l-35.796-30.682h11.749c4.151,0,7.515-3.365,7.515-7.515    V183.358h33.065v104.705c0,4.15,3.364,7.515,7.515,7.515h11.749L159.812,326.259z"
   fill="#FFFFFF"
   id="path110"
   style="stroke:#4abdac;stroke-opacity:1;fill:#4abdac;fill-opacity:1" />
	</g>
</g>
<g
   id="g120"
   style="fill:#000000">
	<g
   id="g118"
   style="fill:#000000">
		<path
   d="M413.188,218.232l-56.11-48.094c-2.815-2.412-6.967-2.412-9.781,0l-56.11,48.094c-5.187,4.446-1.925,13.22,4.891,13.22    h24.548v104.705c0,4.15,3.364,7.515,7.515,7.515h48.094c4.151,0,7.515-3.365,7.515-7.515V231.452h24.548    C415.113,231.452,418.375,222.678,413.188,218.232z M376.235,216.423c-4.151,0-7.515,3.365-7.515,7.515v104.704h-33.065V223.937    c0-4.15-3.364-7.515-7.515-7.515h-11.749l35.796-30.682l35.796,30.682H376.235z"
   fill="#FFFFFF"
   id="path116"
   style="fill:#000000" />
	</g>
</g>
<g
   id="g122">
</g>
<g
   id="g124">
</g>
<g
   id="g126">
</g>
<g
   id="g128">
</g>
<g
   id="g130">
</g>
<g
   id="g132">
</g>
<g
   id="g134">
</g>
<g
   id="g136">
</g>
<g
   id="g138">
</g>
<g
   id="g140">
</g>
<g
   id="g142">
</g>
<g
   id="g144">
</g>
<g
   id="g146">
</g>
<g
   id="g148">
</g>
<g
   id="g150">
</g>
</svg>