<svg xmlns="http://www.w3.org/2000/svg" viewBox="0 0 508 508" width="75" height="75"><path d="M356.45 298.3c12.5-94.2-12.8-193.1-73.4-264.2l-29-34.1-29.1 34.1c-60.5 71.1-85.8 170-73.3 264.2-27.8 27.4-43.8 65-43.8 104.1 0 24.1 6 47.9 17.3 69.1l10.4 19.4 4.7-21.5c5.9-26.8 20.8-50.2 42.4-67 3.3 6.9 6.9 13.7 10.7 20.3l2.3 4.1h116.7l2.3-4.1c3.8-6.6 7.4-13.4 10.7-20.3 21.5 16.7 36.5 40.1 42.4 67l4.7 21.5 10.4-19.4c11.3-21.1 17.3-45 17.3-69 .1-39.2-15.9-76.8-43.7-104.2zM237.35 44.6l16.7-19.6 16.7 19.6c10.9 12.8 20.5 26.5 28.9 41h-91.3c8.5-14.5 18.1-28.2 29-41zm-106.3 399.8c-4.6-13.5-7-27.7-7-42 0-30.8 11.1-60.6 30.8-83.9 4.5 23.5 11.4 46.6 20.8 68.8-20 14.7-35.4 34.3-44.6 57.1zm171.9-33.9h-97.8c-52.8-94.5-53.1-214.6-5.6-308.7h108.9c47.7 94.1 47.3 214.2-5.5 308.7zm74.1 33.8c-9.2-22.7-24.6-42.4-44.7-57.1 9.4-22.1 16.3-45.2 20.8-68.8 19.7 23.3 30.9 53.1 30.9 83.9 0 14.4-2.4 28.6-7 42z"/><path d="M245.95 345.5h16.3v16.2h-16.3zm-32.5 0h16.3v16.2h-16.3zm65 0h16.3v16.2h-16.3zm-24.4-162.4c-22.4 0-40.6 18.2-40.6 40.6 0 22.4 18.2 40.6 40.6 40.6 22.4 0 40.6-18.2 40.6-40.6 0-22.4-18.2-40.6-40.6-40.6zm0 65c-13.4 0-24.4-10.9-24.4-24.4 0-13.4 11-24.4 24.4-24.4 13.4 0 24.4 10.9 24.4 24.4 0 13.4-10.9 24.4-24.4 24.4zm-8.1 194.9h16.2v40.6h-16.2zm40.6 24.4h16.2V508h-16.2zm-81.2 0h16.2V508h-16.2z" fill="#4abdac"/></svg>