<?xml version="1.0" encoding="UTF-8" standalone="no"?>
<!-- Generator: Adobe Illustrator 19.0.0, SVG Export Plug-In . SVG Version: 6.00 Build 0)  -->

<svg
   xmlns:dc="http://purl.org/dc/elements/1.1/"
   xmlns:cc="http://creativecommons.org/ns#"
   xmlns:rdf="http://www.w3.org/1999/02/22-rdf-syntax-ns#"
   xmlns:svg="http://www.w3.org/2000/svg"
   xmlns="http://www.w3.org/2000/svg"
   xmlns:sodipodi="http://sodipodi.sourceforge.net/DTD/sodipodi-0.dtd"
   xmlns:inkscape="http://www.inkscape.org/namespaces/inkscape"
   version="1.1"
   id="Capa_1"
   x="0px"
   y="0px"
   viewBox="0 0 508 508"
   style="enable-background:new 0 0 508 508;"
   xml:space="preserve"
   width="75px"
   height="75px"
   sodipodi:docname="optimization-plan.svg"
   inkscape:version="0.92.3 (2405546, 2018-03-11)"><metadata
   id="metadata85"><rdf:RDF><cc:Work
       rdf:about=""><dc:format>image/svg+xml</dc:format><dc:type
         rdf:resource="http://purl.org/dc/dcmitype/StillImage" /><dc:title></dc:title></cc:Work></rdf:RDF></metadata><defs
   id="defs83" /><sodipodi:namedview
   pagecolor="#ffffff"
   bordercolor="#666666"
   borderopacity="1"
   objecttolerance="10"
   gridtolerance="10"
   guidetolerance="10"
   inkscape:pageopacity="0"
   inkscape:pageshadow="2"
   inkscape:window-width="716"
   inkscape:window-height="480"
   id="namedview81"
   showgrid="false"
   inkscape:pagecheckerboard="true"
   inkscape:zoom="0.4609375"
   inkscape:cx="256"
   inkscape:cy="256"
   inkscape:window-x="2776"
   inkscape:window-y="246"
   inkscape:window-maximized="0"
   inkscape:current-layer="Capa_1" />
<g
   id="g6"
   style="fill:#000000">
	<g
   id="g4"
   style="fill:#000000">
		<path
   d="M356.45,298.3c12.5-94.2-12.8-193.1-73.4-264.2l-29-34.1l-29.1,34.1c-60.5,71.1-85.8,170-73.3,264.2    c-27.8,27.4-43.8,65-43.8,104.1c0,24.1,6,47.9,17.3,69.1l10.4,19.4l4.7-21.5c5.9-26.8,20.8-50.2,42.4-67    c3.3,6.9,6.9,13.7,10.7,20.3l2.3,4.1h116.7l2.3-4.1c3.8-6.6,7.4-13.4,10.7-20.3c21.5,16.7,36.5,40.1,42.4,67l4.7,21.5l10.4-19.4    c11.3-21.1,17.3-45,17.3-69C400.25,363.3,384.25,325.7,356.45,298.3z M237.35,44.6l16.7-19.6l16.7,19.6    c10.9,12.8,20.5,26.5,28.9,41h-91.3C216.85,71.1,226.45,57.4,237.35,44.6z M131.05,444.4c-4.6-13.5-7-27.7-7-42    c0-30.8,11.1-60.6,30.8-83.9c4.5,23.5,11.4,46.6,20.8,68.8C155.65,402,140.25,421.6,131.05,444.4z M302.95,410.5h-97.8    c-52.8-94.5-53.1-214.6-5.6-308.7h108.9C356.15,195.9,355.75,316,302.95,410.5z M377.05,444.3c-9.2-22.7-24.6-42.4-44.7-57.1    c9.4-22.1,16.3-45.2,20.8-68.8c19.7,23.3,30.9,53.1,30.9,83.9C384.05,416.7,381.65,430.9,377.05,444.3z"
   fill="#FFFFFF"
   id="path2"
   style="fill:#000000" />
	</g>
</g>
<g
   id="g12"
   style="fill:#4abdac;fill-opacity:1">
	<g
   id="g10"
   style="fill:#4abdac;fill-opacity:1">
		<rect
   x="245.95"
   y="345.5"
   width="16.3"
   height="16.2"
   fill="#FFFFFF"
   id="rect8"
   style="fill:#4abdac;fill-opacity:1" />
	</g>
</g>
<g
   id="g18"
   style="fill:#4abdac;fill-opacity:1">
	<g
   id="g16"
   style="fill:#4abdac;fill-opacity:1">
		<rect
   x="213.45"
   y="345.5"
   width="16.3"
   height="16.2"
   fill="#FFFFFF"
   id="rect14"
   style="fill:#4abdac;fill-opacity:1" />
	</g>
</g>
<g
   id="g24">
	<g
   id="g22">
		<rect
   x="278.45"
   y="345.5"
   width="16.3"
   height="16.2"
   fill="#FFFFFF"
   id="rect20"
   style="fill:#4abdac;fill-opacity:1" />
	</g>
</g>
<g
   id="g30"
   style="fill:#4abdac;fill-opacity:1">
	<g
   id="g28"
   style="fill:#4abdac;fill-opacity:1">
		<path
   d="M254.05,183.1c-22.4,0-40.6,18.2-40.6,40.6c0,22.4,18.2,40.6,40.6,40.6c22.4,0,40.6-18.2,40.6-40.6    C294.65,201.3,276.45,183.1,254.05,183.1z M254.05,248.1c-13.4,0-24.4-10.9-24.4-24.4c0-13.4,11-24.4,24.4-24.4    c13.4,0,24.4,10.9,24.4,24.4C278.45,237.1,267.55,248.1,254.05,248.1z"
   fill="#FFFFFF"
   id="path26"
   style="fill:#4abdac;fill-opacity:1" />
	</g>
</g>
<g
   id="g36"
   style="fill:#4abdac;fill-opacity:1">
	<g
   id="g34"
   style="fill:#4abdac;fill-opacity:1">
		<rect
   x="245.95"
   y="443"
   width="16.2"
   height="40.6"
   fill="#FFFFFF"
   id="rect32"
   style="fill:#4abdac;fill-opacity:1" />
	</g>
</g>
<g
   id="g42"
   style="fill:#4abdac;fill-opacity:1">
	<g
   id="g40"
   style="fill:#4abdac;fill-opacity:1">
		<rect
   x="286.55"
   y="467.4"
   width="16.2"
   height="40.6"
   fill="#FFFFFF"
   id="rect38"
   style="fill:#4abdac;fill-opacity:1" />
	</g>
</g>
<g
   id="g48"
   style="fill:#4abdac;fill-opacity:1">
	<g
   id="g46"
   style="fill:#4abdac;fill-opacity:1">
		<rect
   x="205.35"
   y="467.4"
   width="16.2"
   height="40.6"
   fill="#FFFFFF"
   id="rect44"
   style="fill:#4abdac;fill-opacity:1" />
	</g>
</g>
<g
   id="g50">
</g>
<g
   id="g52">
</g>
<g
   id="g54">
</g>
<g
   id="g56">
</g>
<g
   id="g58">
</g>
<g
   id="g60">
</g>
<g
   id="g62">
</g>
<g
   id="g64">
</g>
<g
   id="g66">
</g>
<g
   id="g68">
</g>
<g
   id="g70">
</g>
<g
   id="g72">
</g>
<g
   id="g74">
</g>
<g
   id="g76">
</g>
<g
   id="g78">
</g>
</svg>