<?xml version="1.0" encoding="UTF-8" standalone="no"?>
<!-- Generator: Adobe Illustrator 19.0.0, SVG Export Plug-In . SVG Version: 6.00 Build 0)  -->

<svg
   xmlns:dc="http://purl.org/dc/elements/1.1/"
   xmlns:cc="http://creativecommons.org/ns#"
   xmlns:rdf="http://www.w3.org/1999/02/22-rdf-syntax-ns#"
   xmlns:svg="http://www.w3.org/2000/svg"
   xmlns="http://www.w3.org/2000/svg"
   xmlns:sodipodi="http://sodipodi.sourceforge.net/DTD/sodipodi-0.dtd"
   xmlns:inkscape="http://www.inkscape.org/namespaces/inkscape"
   version="1.1"
   id="Capa_1"
   x="0px"
   y="0px"
   viewBox="0 0 512 512"
   style="enable-background:new 0 0 512 512;"
   xml:space="preserve"
   width="75px"
   height="75px"
   sodipodi:docname="theme-support.svg"
   inkscape:version="0.92.3 (2405546, 2018-03-11)"><metadata
   id="metadata91"><rdf:RDF><cc:Work
       rdf:about=""><dc:format>image/svg+xml</dc:format><dc:type
         rdf:resource="http://purl.org/dc/dcmitype/StillImage" /><dc:title></dc:title></cc:Work></rdf:RDF></metadata><defs
   id="defs89" /><sodipodi:namedview
   pagecolor="#ffffff"
   bordercolor="#666666"
   borderopacity="1"
   objecttolerance="10"
   gridtolerance="10"
   guidetolerance="10"
   inkscape:pageopacity="0"
   inkscape:pageshadow="2"
   inkscape:window-width="1920"
   inkscape:window-height="1017"
   id="namedview87"
   showgrid="false"
   inkscape:pagecheckerboard="true"
   inkscape:zoom="0.4609375"
   inkscape:cx="256"
   inkscape:cy="256"
   inkscape:window-x="2152"
   inkscape:window-y="-8"
   inkscape:window-maximized="1"
   inkscape:current-layer="g50" />
<g
   id="g54">
	<g
   id="g52">
		<g
   id="g50">
			<path
   d="M 504.8,108.8 H 504 C 504,79.2 480.8,56 451.2,56 H 60.8 C 31.2,56 8,79.2 8,108.8 V 355.2 C 8,384.8 31.2,408 60.8,408 h 141.6 l -12,56 H 136 c -4.8,0 -8,3.2 -8,8 v 32 c 0,4.8 3.2,8 8,8 h 240 c 4.8,0 8,-3.2 8,-8 v -32 c 0,-4.8 -3.2,-8 -8,-8 h -53.6 l -12,-56 H 452 c 28.8,0 52.8,-23.2 52.8,-52.8 z M 368,480 v 16 H 144 v -16 z m -161.6,-16 12,-56 h 75.2 l 12,56 z M 488,355.2 c 0,20 -16.8,36.8 -36.8,36.8 H 60.8 C 40.8,392 24,375.2 24,355.2 V 328 H 488 Z M 488,312 H 24 V 108.8 C 24,88.8 40.8,72 60.8,72 H 156.20339 451.2 c 20,0 36.8,16.8 36.8,36.8 z"
   id="path2"
   inkscape:connector-curvature="0"
   style="fill:#000000;fill-opacity:1"
   sodipodi:nodetypes="ccsssssccssssssssccsscccccccccccssssccsccsscssc" />
			<circle
   cx="256"
   cy="360"
   r="16"
   id="circle4"
   fill="#FFFFFF"
   style="fill:#4abdac;fill-opacity:1" />
			<rect
   x="376"
   y="104"
   width="16"
   height="16"
   id="rect6"
   fill="#FFFFFF"
   style="fill:#4abdac;fill-opacity:1" />
			<rect
   x="408"
   y="104"
   width="16"
   height="16"
   id="rect8"
   fill="#FFFFFF"
   style="fill:#4abdac;fill-opacity:1" />
			<rect
   x="440"
   y="104"
   width="16"
   height="16"
   id="rect10"
   fill="#FFFFFF"
   style="fill:#4abdac;fill-opacity:1" />
			<rect
   x="408"
   y="136"
   width="16"
   height="16"
   id="rect12"
   fill="#FFFFFF"
   style="fill:#4abdac;fill-opacity:1" />
			<rect
   x="440"
   y="136"
   width="16"
   height="16"
   id="rect14"
   fill="#FFFFFF"
   style="fill:#4abdac;fill-opacity:1" />
			<rect
   x="296"
   y="264"
   width="160"
   height="16"
   id="rect16"
   fill="#FFFFFF"
   style="fill:#4abdac;fill-opacity:1" />
			<rect
   x="320"
   y="232"
   width="136"
   height="16"
   id="rect18"
   fill="#FFFFFF"
   style="fill:#4abdac;fill-opacity:1" />
			<rect
   x="344"
   y="200"
   width="112"
   height="16"
   id="rect20"
   fill="#FFFFFF"
   style="fill:#4abdac;fill-opacity:1" />
			<rect
   x="440"
   y="168"
   width="16"
   height="16"
   id="rect22"
   fill="#FFFFFF"
   style="fill:#4abdac;fill-opacity:1" />
			<path
   d="M260,168.8c-2.4-1.6-5.6-1.6-8,0l-36,18.4V176c0-4.8-3.2-8-8-8h-40.8c0.8-2.4,0.8-5.6,0.8-8c0-31.2-24.8-56-56-56     s-56,24.8-56,56c0,28,20.8,51.2,48,55.2V272c0,4.8,3.2,8,8,8h96c4.8,0,8-3.2,8-8v-11.2l36,18.4c1.6,0.8,2.4,0.8,4,0.8     c4.8,0,8-3.2,8-8v-96C264,173.6,262.4,170.4,260,168.8z M104,176v23.2c-21.6-4-36-25.6-31.2-47.2c4-18.4,20-32,39.2-32     c22.4,0,40,17.6,40,40c0,2.4,0,5.6-0.8,8H112C107.2,168,104,171.2,104,176z M144,184c-5.6,8-14.4,13.6-24,15.2V184H144z      M200,235.2L177.6,224l22.4-11.2V235.2z M200,195.2l-44,21.6c-2.4,1.6-4,4-4,7.2s1.6,5.6,4,7.2l44,21.6V264h-80v-48.8     c18.4-2.4,34.4-14.4,42.4-31.2H200V195.2z M248,259.2l-32-16v-38.4l32-16V259.2z"
   id="path24"
   fill="#FFFFFF"
   style="fill:#4abdac;fill-opacity:1" />
			<rect
   x="496"
   width="16"
   height="16"
   id="rect26"
   fill="#FFFFFF" />
			<rect
   x="496"
   y="32"
   width="16"
   height="16"
   id="rect28"
   fill="#FFFFFF" />
			<rect
   x="464"
   width="16"
   height="16"
   id="rect30"
   fill="#FFFFFF" />
			<rect
   width="16"
   height="16"
   id="rect32"
   fill="#FFFFFF" />
			<rect
   x="32"
   width="16"
   height="16"
   id="rect34"
   fill="#FFFFFF" />
			<rect
   y="32"
   width="16"
   height="16"
   id="rect36"
   fill="#FFFFFF" />
			<rect
   y="496"
   width="16"
   height="16"
   id="rect38"
   fill="#FFFFFF" />
			<rect
   y="464"
   width="16"
   height="16"
   id="rect40"
   fill="#FFFFFF" />
			<rect
   x="32"
   y="496"
   width="16"
   height="16"
   id="rect42"
   fill="#FFFFFF" />
			<rect
   x="496"
   y="496"
   width="16"
   height="16"
   id="rect44"
   fill="#FFFFFF" />
			<rect
   x="464"
   y="496"
   width="16"
   height="16"
   id="rect46"
   fill="#FFFFFF" />
			<rect
   x="496"
   y="464"
   width="16"
   height="16"
   id="rect48"
   fill="#FFFFFF" />
		</g>
	</g>
</g>
<g
   id="g56">
</g>
<g
   id="g58">
</g>
<g
   id="g60">
</g>
<g
   id="g62">
</g>
<g
   id="g64">
</g>
<g
   id="g66">
</g>
<g
   id="g68">
</g>
<g
   id="g70">
</g>
<g
   id="g72">
</g>
<g
   id="g74">
</g>
<g
   id="g76">
</g>
<g
   id="g78">
</g>
<g
   id="g80">
</g>
<g
   id="g82">
</g>
<g
   id="g84">
</g>
</svg>