<?xml version="1.0" encoding="UTF-8" standalone="no"?><svg width="225" height="150" viewBox="0 0 225 150" xmlns="http://www.w3.org/2000/svg" xmlns:xlink="http://www.w3.org/1999/xlink"><svg viewBox="0 0 496 496" width="75" height="75" id="analytics-chart" xmlns="http://www.w3.org/2000/svg"><path d="M432 48v176h64V48h-64zm48 160h-32V64h32v144zM352 128.928a191.442 191.442 0 0 0-16-12.84V112h-6.024C298.8 91.376 261.944 80 224 80h-8v200h200v-8c0-16.256-2.152-32.336-6.192-48H416V80h-64v48.928zM232 264V96.176c22.64 1.04 44.696 6.536 65.032 15.824H272v112h64v-87.464c5.6 4.624 10.976 9.528 16 14.856V224h41.248c3.696 13.048 5.96 26.44 6.576 40H232zm88-136v80h-32v-80h32zm48-32h32v112h-32V96z"/><path fill="#4abdac" d="M62.343 310.337l67.994-67.994 11.314 11.314-67.994 67.994zM96 248c0-13.232-10.768-24-24-24s-24 10.768-24 24 10.768 24 24 24 24-10.768 24-24zm-32 0c0-4.416 3.584-8 8-8s8 3.584 8 8-3.584 8-8 8-8-3.584-8-8zM136 288c-13.232 0-24 10.768-24 24s10.768 24 24 24 24-10.768 24-24-10.768-24-24-24zm0 32c-4.416 0-8-3.584-8-8s3.584-8 8-8 8 3.584 8 8-3.584 8-8 8z"/><path d="M350.856 411.544C372.472 379.696 384 342.712 384 304v-8H200V112h-8c-7.904 0-15.944.696-24 1.712V0H0v112h100.688l15.624 15.624C46.28 157.696 0 227.024 0 304c0 105.864 86.136 192 192 192 46.424 0 90.648-16.784 125.592-47.096l24.752 24.752c4.864 4.864 11.264 7.304 17.656 7.304 6.392 0 12.792-2.44 17.656-7.304 9.736-9.736 9.736-25.576 0-35.312l-26.8-26.8zM107.312 96H16V16h136v124.688L107.312 96zM192 480c-97.048 0-176-78.952-176-176 0-72.728 45.088-137.976 112.616-164.072L168 179.312V129.76c5.352-.736 10.704-1.328 16-1.576V312h183.824c-1.4 31.56-11.2 61.664-28.464 88.048l-12.76-12.76c.88-3.624 1.4-7.392 1.4-11.288 0-26.472-21.528-48-48-48s-48 21.528-48 48 21.528 48 48 48c3.896 0 7.664-.52 11.288-1.4l14.96 14.96C274.36 464.888 234.176 480 192 480zm120-104c0 17.648-14.352 32-32 32s-32-14.352-32-32 14.352-32 32-32 32 14.352 32 32zm54.344 86.344a8.971 8.971 0 0 1-12.688 0l-46.672-46.672a48.33 48.33 0 0 0 12.688-12.688l46.672 46.672c3.496 3.504 3.496 9.184 0 12.688z"/><path fill="#4abdac" d="M32 32h104v16H32zM32 64h104v16H32zM272 368h16v16h-16zM200 368h16v16h-16zM168 368h16v16h-16zM136 368h16v16h-16z"/></svg><svg viewBox="0 0 512 512" width="75" height="75" id="backup-plan" x="75" xmlns="http://www.w3.org/2000/svg"><path d="M504.485 0H7.515A7.515 7.515 0 0 0 0 7.515v144.282a7.515 7.515 0 0 0 7.515 7.515h285.224a7.515 7.515 0 1 0 0-15.03H15.029V15.029H496.97v129.252H328.14a7.515 7.515 0 1 0 0 15.03h176.344a7.515 7.515 0 0 0 7.515-7.515V7.515A7.513 7.513 0 0 0 504.485 0z"/><path d="M47.593 32.063a7.515 7.515 0 0 0-7.515 7.515v80.157a7.515 7.515 0 1 0 15.03 0V39.577a7.514 7.514 0 0 0-7.515-7.514zM95.687 32.063a7.515 7.515 0 0 0-7.515 7.515v80.157a7.515 7.515 0 1 0 15.03 0V39.577a7.514 7.514 0 0 0-7.515-7.514zM143.781 32.063a7.515 7.515 0 0 0-7.515 7.515v80.157a7.515 7.515 0 1 0 15.03 0V39.577a7.515 7.515 0 0 0-7.515-7.514zM191.875 32.063a7.515 7.515 0 0 0-7.515 7.515v80.157a7.515 7.515 0 1 0 15.03 0V39.577a7.515 7.515 0 0 0-7.515-7.514zM239.969 32.063a7.515 7.515 0 0 0-7.515 7.515v80.157a7.515 7.515 0 1 0 15.03 0V39.577a7.515 7.515 0 0 0-7.515-7.514z"/><path d="M304.094 48.094c-17.403 0-31.562 14.159-31.562 31.562s14.159 31.562 31.562 31.562 31.562-14.159 31.562-31.562-14.159-31.562-31.562-31.562zm0 48.094c-9.116 0-16.532-7.417-16.532-16.532s7.417-16.532 16.532-16.532 16.532 7.417 16.532 16.532-7.416 16.532-16.532 16.532zM448.376 48.094c-17.403 0-31.562 14.159-31.562 31.562s14.159 31.562 31.562 31.562 31.562-14.159 31.562-31.562-14.159-31.562-31.562-31.562zm0 48.094c-9.116 0-16.532-7.417-16.532-16.532s7.417-16.532 16.532-16.532 16.532 7.417 16.532 16.532-7.416 16.532-16.532 16.532zM376.235 48.094c-17.403 0-31.562 14.159-31.562 31.562s14.159 31.562 31.562 31.562 31.562-14.159 31.562-31.562-14.159-31.562-31.562-31.562zm0 48.094c-9.116 0-16.532-7.417-16.532-16.532s7.417-16.532 16.532-16.532c9.116 0 16.532 7.417 16.532 16.532s-7.416 16.532-16.532 16.532z" fill="#4abdac"/><path d="M504.485 352.689H7.515A7.515 7.515 0 0 0 0 360.204v144.282A7.515 7.515 0 0 0 7.515 512h496.971a7.515 7.515 0 0 0 7.515-7.515V360.203a7.516 7.516 0 0 0-7.516-7.514zm-7.514 144.282H15.029V367.718H496.97v129.253z"/><path d="M47.593 384.751a7.515 7.515 0 0 0-7.515 7.515v80.157a7.515 7.515 0 1 0 15.03 0v-80.157a7.515 7.515 0 0 0-7.515-7.515zM95.687 384.751a7.515 7.515 0 0 0-7.515 7.515v80.157a7.515 7.515 0 1 0 15.03 0v-80.157a7.515 7.515 0 0 0-7.515-7.515zM143.781 384.751a7.515 7.515 0 0 0-7.515 7.515v80.157a7.515 7.515 0 1 0 15.03 0v-80.157a7.516 7.516 0 0 0-7.515-7.515zM191.875 384.751a7.515 7.515 0 0 0-7.515 7.515v80.157a7.515 7.515 0 1 0 15.03 0v-80.157a7.516 7.516 0 0 0-7.515-7.515zM239.969 384.751a7.515 7.515 0 0 0-7.515 7.515v80.157a7.515 7.515 0 1 0 15.03 0v-80.157a7.516 7.516 0 0 0-7.515-7.515z" fill="#4abdac"/><path d="M304.094 400.783c-17.403 0-31.562 14.159-31.562 31.562s14.159 31.562 31.562 31.562 31.562-14.159 31.562-31.562-14.159-31.562-31.562-31.562zm0 48.094c-9.116 0-16.532-7.417-16.532-16.532s7.417-16.532 16.532-16.532 16.532 7.417 16.532 16.532-7.416 16.532-16.532 16.532zM448.376 400.783c-17.403 0-31.562 14.159-31.562 31.562s14.159 31.562 31.562 31.562 31.562-14.159 31.562-31.562-14.159-31.562-31.562-31.562zm0 48.094c-9.116 0-16.532-7.417-16.532-16.532s7.417-16.532 16.532-16.532 16.532 7.417 16.532 16.532-7.416 16.532-16.532 16.532zM376.235 400.783c-17.403 0-31.562 14.159-31.562 31.562s14.159 31.562 31.562 31.562 31.562-14.159 31.562-31.562-14.159-31.562-31.562-31.562zm0 48.094c-9.116 0-16.532-7.417-16.532-16.532s7.417-16.532 16.532-16.532c9.116 0 16.532 7.417 16.532 16.532s-7.416 16.532-16.532 16.532z"/><path d="M215.922 280.548h-24.548V175.843a7.515 7.515 0 0 0-7.515-7.515h-48.094a7.515 7.515 0 0 0-7.515 7.515v104.704h-24.548c-6.815 0-10.078 8.774-4.891 13.22l56.11 48.094c2.78 2.383 7.001 2.383 9.781 0l56.11-48.094c5.187-4.446 1.925-13.219-4.89-13.219zm-56.11 45.711l-35.796-30.682h11.749a7.515 7.515 0 0 0 7.515-7.515V183.358h33.065v104.705a7.515 7.515 0 0 0 7.515 7.515h11.749l-35.797 30.681z" stroke="#4abdac" fill="#4abdac"/><path d="M413.188 218.232l-56.11-48.094a7.515 7.515 0 0 0-9.781 0l-56.11 48.094c-5.187 4.446-1.925 13.22 4.891 13.22h24.548v104.705a7.515 7.515 0 0 0 7.515 7.515h48.094a7.515 7.515 0 0 0 7.515-7.515V231.452h24.548c6.815 0 10.077-8.774 4.89-13.22zm-36.953-1.809a7.515 7.515 0 0 0-7.515 7.515v104.704h-33.065V223.937a7.515 7.515 0 0 0-7.515-7.515h-11.749l35.796-30.682 35.796 30.682h-11.748z"/></svg><svg viewBox="0 0 508 508" width="75" height="75" id="optimization-plan" y="75" xmlns="http://www.w3.org/2000/svg"><path d="M356.45 298.3c12.5-94.2-12.8-193.1-73.4-264.2l-29-34.1-29.1 34.1c-60.5 71.1-85.8 170-73.3 264.2-27.8 27.4-43.8 65-43.8 104.1 0 24.1 6 47.9 17.3 69.1l10.4 19.4 4.7-21.5c5.9-26.8 20.8-50.2 42.4-67 3.3 6.9 6.9 13.7 10.7 20.3l2.3 4.1h116.7l2.3-4.1c3.8-6.6 7.4-13.4 10.7-20.3 21.5 16.7 36.5 40.1 42.4 67l4.7 21.5 10.4-19.4c11.3-21.1 17.3-45 17.3-69 .1-39.2-15.9-76.8-43.7-104.2zM237.35 44.6l16.7-19.6 16.7 19.6c10.9 12.8 20.5 26.5 28.9 41h-91.3c8.5-14.5 18.1-28.2 29-41zm-106.3 399.8c-4.6-13.5-7-27.7-7-42 0-30.8 11.1-60.6 30.8-83.9 4.5 23.5 11.4 46.6 20.8 68.8-20 14.7-35.4 34.3-44.6 57.1zm171.9-33.9h-97.8c-52.8-94.5-53.1-214.6-5.6-308.7h108.9c47.7 94.1 47.3 214.2-5.5 308.7zm74.1 33.8c-9.2-22.7-24.6-42.4-44.7-57.1 9.4-22.1 16.3-45.2 20.8-68.8 19.7 23.3 30.9 53.1 30.9 83.9 0 14.4-2.4 28.6-7 42z"/><path d="M245.95 345.5h16.3v16.2h-16.3zM213.45 345.5h16.3v16.2h-16.3zM278.45 345.5h16.3v16.2h-16.3zM254.05 183.1c-22.4 0-40.6 18.2-40.6 40.6 0 22.4 18.2 40.6 40.6 40.6 22.4 0 40.6-18.2 40.6-40.6 0-22.4-18.2-40.6-40.6-40.6zm0 65c-13.4 0-24.4-10.9-24.4-24.4 0-13.4 11-24.4 24.4-24.4 13.4 0 24.4 10.9 24.4 24.4 0 13.4-10.9 24.4-24.4 24.4zM245.95 443h16.2v40.6h-16.2zM286.55 467.4h16.2V508h-16.2zM205.35 467.4h16.2V508h-16.2z" fill="#4abdac"/></svg><svg version="1.1" id="service-star" x="75" y="75" viewBox="0 0 496 496" xml:space="preserve" width="75" height="75" xmlns="http://www.w3.org/2000/svg"><defs id="ddefs65"><style id="dstyle3736">.dcls-1{fill:#4abdac}</style></defs><g id="dg30"><g id="dg28"><g id="dg26" fill="#000"><path id="dpath3742" d="M246.669 4.594l-60.88 182.915H3.154L155.35 309.452 94.471 492.368 246.67 370.424l152.197 121.944-60.879-182.916L490.184 187.51H307.548z" class="dcls-1" fill="#4abdac" fill-opacity="1" stroke-width="7.616"/></g></g></g></svg><svg viewBox="0 0 512 512" width="75" height="75" id="theme-support" x="150" xmlns="http://www.w3.org/2000/svg"><path d="M504.8 108.8h-.8c0-29.6-23.2-52.8-52.8-52.8H60.8C31.2 56 8 79.2 8 108.8v246.4C8 384.8 31.2 408 60.8 408h141.6l-12 56H136c-4.8 0-8 3.2-8 8v32c0 4.8 3.2 8 8 8h240c4.8 0 8-3.2 8-8v-32c0-4.8-3.2-8-8-8h-53.6l-12-56H452c28.8 0 52.8-23.2 52.8-52.8zM368 480v16H144v-16zm-161.6-16l12-56h75.2l12 56zM488 355.2c0 20-16.8 36.8-36.8 36.8H60.8c-20 0-36.8-16.8-36.8-36.8V328h464zm0-43.2H24V108.8C24 88.8 40.8 72 60.8 72H451.2c20 0 36.8 16.8 36.8 36.8z"/><circle cx="256" cy="360" r="16" fill="#4abdac"/><path fill="#4abdac" d="M376 104h16v16h-16zM408 104h16v16h-16zM440 104h16v16h-16zM408 136h16v16h-16zM440 136h16v16h-16zM296 264h160v16H296zM320 232h136v16H320zM344 200h112v16H344zM440 168h16v16h-16zM260 168.8c-2.4-1.6-5.6-1.6-8 0l-36 18.4V176c0-4.8-3.2-8-8-8h-40.8c.8-2.4.8-5.6.8-8 0-31.2-24.8-56-56-56s-56 24.8-56 56c0 28 20.8 51.2 48 55.2V272c0 4.8 3.2 8 8 8h96c4.8 0 8-3.2 8-8v-11.2l36 18.4c1.6.8 2.4.8 4 .8 4.8 0 8-3.2 8-8v-96c0-2.4-1.6-5.6-4-7.2zM104 176v23.2c-21.6-4-36-25.6-31.2-47.2 4-18.4 20-32 39.2-32 22.4 0 40 17.6 40 40 0 2.4 0 5.6-.8 8H112c-4.8 0-8 3.2-8 8zm40 8c-5.6 8-14.4 13.6-24 15.2V184h24zm56 51.2L177.6 224l22.4-11.2v22.4zm0-40l-44 21.6c-2.4 1.6-4 4-4 7.2s1.6 5.6 4 7.2l44 21.6V264h-80v-48.8c18.4-2.4 34.4-14.4 42.4-31.2H200v11.2zm48 64l-32-16v-38.4l32-16v70.4z"/><path fill="#FFF" d="M496 0h16v16h-16zM496 32h16v16h-16zM464 0h16v16h-16zM0 0h16v16H0zM32 0h16v16H32zM0 32h16v16H0zM0 496h16v16H0zM0 464h16v16H0zM32 496h16v16H32zM496 496h16v16h-16zM464 496h16v16h-16zM496 464h16v16h-16z"/></svg></svg>